<?xml version="1.0" standalone="no"?>
<!DOCTYPE svg PUBLIC "-//W3C//DTD SVG 20010904//EN"
 "http://www.w3.org/TR/2001/REC-SVG-20010904/DTD/svg10.dtd">
<svg version="1.0" xmlns="http://www.w3.org/2000/svg"
 width="640.000000pt" height="640.000000pt" viewBox="0 0 640.000000 640.000000"
 preserveAspectRatio="xMidYMid meet">

<g transform="translate(0.000000,640.000000) scale(0.100000,-0.100000)"
fill="#000000" stroke="none">
<path d="M0 3200 l0 -3200 3200 0 3200 0 0 3200 0 3200 -3200 0 -3200 0 0
-3200z m3440 1990 c19 -5 51 -11 70 -14 19 -3 53 -11 75 -16 22 -6 45 -12 50
-13 6 -1 16 -6 23 -10 7 -5 12 -4 12 2 0 6 8 11 18 10 11 0 12 -2 4 -6 -10 -4
-9 -8 5 -19 19 -14 68 -19 59 -6 -2 4 4 9 15 9 10 1 19 -2 19 -7 0 -5 8 -7 18
-4 16 5 16 5 0 -6 -10 -6 -18 -18 -18 -25 0 -10 -11 -15 -34 -15 -57 0 -164
-38 -292 -104 l-122 -63 -62 49 c-137 106 -311 168 -483 171 l-97 1 62 18 c35
10 108 23 163 29 55 6 116 14 135 19 48 11 337 11 380 0z m-490 -105 c131 -31
246 -88 351 -176 54 -45 119 -160 143 -255 30 -115 19 -127 -61 -70 -216 153
-500 182 -763 78 -100 -40 -233 -122 -220 -136 3 -2 35 14 70 36 156 100 319
143 505 135 142 -6 236 -35 362 -111 74 -45 242 -190 232 -201 -3 -2 -45 0
-95 6 -117 14 -262 4 -404 -27 -151 -34 -253 -72 -416 -154 -73 -38 -152 -71
-174 -75 -22 -4 -40 -11 -40 -17 0 -22 79 5 215 71 236 115 393 164 589 181
112 10 288 0 368 -21 62 -16 126 -101 104 -138 -3 -5 -40 2 -83 15 -122 37
-229 48 -339 34 -102 -12 -319 -60 -504 -110 -63 -17 -184 -49 -269 -70 -85
-21 -158 -43 -164 -49 -15 -15 1 -77 28 -109 29 -35 97 -55 155 -46 36 6 44 3
79 -29 87 -79 260 -168 381 -198 79 -19 315 -16 415 6 123 26 236 64 283 96
46 31 62 30 62 -2 0 -69 -65 -133 -157 -154 -75 -17 -234 -35 -317 -35 -169 0
-413 50 -587 120 -56 22 -105 38 -108 35 -9 -9 16 -22 124 -63 263 -102 516
-133 792 -97 69 9 135 24 160 36 44 21 95 77 108 117 5 19 12 22 28 17 182
-53 206 -57 400 -53 104 2 191 0 193 -4 3 -5 1 -15 -6 -23 -8 -10 -8 -13 2
-11 25 4 58 27 55 39 -1 7 12 13 31 15 18 2 32 -1 32 -7 0 -6 -7 -11 -15 -11
-8 0 -15 -4 -15 -10 0 -5 4 -10 10 -10 5 0 7 -6 4 -14 -3 -8 -1 -17 5 -21 14
-8 14 -42 0 -51 -7 -4 -10 -1 -7 7 7 18 -22 69 -39 69 -18 0 -16 -6 9 -30 12
-11 17 -20 12 -20 -6 0 -16 6 -23 13 -11 10 -14 10 -18 0 -3 -7 -13 -13 -24
-13 -12 0 -16 5 -13 15 4 8 2 15 -4 15 -5 0 -13 -7 -16 -16 -4 -10 -13 -13
-25 -9 -23 7 -38 -12 -22 -28 8 -8 14 -8 23 1 16 16 60 16 56 -1 -7 -32 74
-89 113 -79 4 1 5 -8 2 -18 -5 -21 -23 -28 -23 -10 0 6 -5 10 -11 10 -6 0 -8
-8 -4 -19 4 -14 -2 -21 -26 -31 -38 -16 -49 -4 -43 47 3 22 1 32 -6 28 -5 -3
-10 -2 -10 2 0 5 -10 14 -21 22 -21 13 -22 12 -16 -22 3 -20 1 -39 -6 -46 -8
-8 -8 -11 0 -11 6 0 13 4 15 10 2 6 8 6 18 0 12 -8 11 -11 -9 -17 l-25 -6 24
-9 c12 -5 21 -11 18 -13 -16 -17 -130 -37 -237 -42 -103 -5 -130 -3 -155 10
-46 24 -147 67 -157 67 -5 0 -9 -11 -9 -25 0 -15 -5 -25 -12 -24 -24 3 -38 -1
-38 -11 0 -16 44 -6 61 14 13 15 19 17 37 7 12 -6 19 -17 16 -25 -3 -7 2 -16
12 -20 12 -4 15 -2 10 9 -3 8 -3 15 0 15 8 0 118 -58 149 -79 43 -30 67 -26
32 4 l-28 25 33 1 c51 1 137 9 186 19 24 4 52 5 63 3 10 -3 19 -1 19 5 0 13
56 26 71 16 9 -5 7 -11 -5 -20 -10 -7 -15 -18 -11 -24 4 -7 1 -17 -6 -22 -10
-7 -6 -8 12 -4 28 6 50 -18 26 -28 -9 -3 -8 -8 3 -15 23 -16 32 -13 25 8 -3
10 1 23 9 30 11 9 19 5 40 -19 52 -62 126 -207 126 -246 0 -9 -7 -32 -16 -51
-13 -25 -14 -37 -5 -46 38 -38 -31 -134 -103 -143 -12 -1 -25 -4 -31 -5 -5 -2
-10 1 -10 6 0 6 3 9 7 8 4 -2 12 6 18 17 6 11 17 20 25 20 8 0 21 10 29 22 14
20 14 23 -5 36 -16 11 -23 11 -34 2 -12 -10 -16 -9 -19 1 -2 8 -7 22 -10 32
-3 9 -14 17 -25 17 -15 0 -20 -10 -25 -45 -4 -25 -11 -45 -17 -45 -5 0 -9 -14
-9 -31 0 -24 4 -30 15 -25 29 11 15 -22 -17 -42 -84 -50 -307 -77 -563 -69
-210 7 -354 29 -615 93 -262 65 -384 85 -550 91 -115 4 -156 2 -197 -10 -29
-9 -53 -12 -53 -6 0 5 -5 9 -11 9 -5 0 -7 -4 -4 -10 3 -5 -6 -22 -22 -37 -15
-16 -40 -50 -55 -78 -15 -27 -28 -47 -28 -42 -6 48 0 112 11 126 8 9 15 27 17
41 8 80 7 96 -7 113 -12 15 -13 20 -2 26 10 6 9 10 -3 14 -12 5 -16 18 -14 49
3 38 0 43 -19 46 -24 4 -33 -21 -12 -34 8 -4 6 -10 -6 -17 -18 -9 -18 -10 0
-23 17 -13 15 -14 -20 -14 -36 0 -38 1 -19 15 10 8 15 15 9 15 -5 0 -4 4 3 8
7 5 10 16 6 25 -3 9 -11 14 -17 10 -6 -3 -7 -1 -3 6 4 6 12 9 17 6 5 -4 9 12
9 34 0 22 -6 42 -12 45 -10 5 -10 7 0 12 6 3 10 10 6 15 -3 5 -19 0 -35 -12
-20 -14 -34 -18 -42 -11 -7 5 -21 6 -32 2 -19 -7 -19 -7 0 -17 11 -6 26 -8 33
-6 18 7 15 -17 -4 -24 -8 -3 -20 -1 -26 5 -8 8 -15 9 -25 1 -10 -9 -13 -8 -13
4 0 10 -6 14 -14 11 -12 -4 -14 1 -10 22 3 15 2 34 -1 43 -6 14 -7 14 -16 -2
-6 -9 -8 -21 -4 -26 3 -5 1 -12 -4 -15 -5 -4 -12 -2 -15 2 -3 5 -21 8 -41 5
-37 -4 -89 22 -79 39 3 5 12 4 21 -4 14 -11 15 -10 8 12 -9 27 -35 51 -48 43
-4 -2 -5 -9 -2 -14 4 -5 1 -9 -5 -9 -6 0 -10 10 -8 22 4 29 -45 47 -70 25 -15
-14 -19 -13 -41 4 -13 10 -32 19 -42 19 -10 0 -19 5 -19 11 0 6 -7 9 -15 6 -8
-4 -17 -2 -20 3 -4 6 2 10 12 10 17 1 17 1 1 14 -10 7 -18 18 -18 24 0 6 -8
16 -17 22 -15 10 -15 11 -1 6 24 -7 31 32 8 44 -11 6 -21 6 -24 1 -4 -5 0 -11
6 -14 9 -3 5 -11 -10 -22 -16 -12 -22 -24 -18 -38 3 -12 0 -27 -5 -33 -6 -7
-8 -23 -4 -35 5 -15 10 -18 15 -10 4 7 6 -5 5 -26 -2 -23 -8 -39 -16 -41 -15
-3 -22 -92 -7 -92 4 0 8 -7 8 -15 0 -8 -4 -15 -10 -15 -5 0 -10 6 -10 14 0 8
-9 13 -24 12 -13 0 -22 -6 -19 -12 2 -7 -1 -15 -8 -20 -8 -5 -10 -3 -4 6 6 10
4 12 -8 7 -10 -4 -17 -1 -17 6 -1 7 -7 -1 -15 -18 -7 -16 -14 -24 -14 -17 -1
6 -8 12 -16 12 -12 0 -21 21 -13 33 1 1 -4 13 -11 26 -7 13 -8 21 -3 17 6 -3
13 -2 17 3 3 6 -4 15 -15 21 -13 7 -21 20 -20 33 4 41 0 55 -16 61 -10 4 -13
2 -8 -7 4 -6 -1 -5 -10 4 -12 11 -15 24 -10 47 4 18 10 32 14 32 8 0 -3 75
-15 103 -5 12 -2 17 10 17 17 0 17 1 1 19 -12 13 -14 20 -5 23 7 2 11 24 10
60 -1 41 4 61 18 77 18 21 19 37 8 86 -3 11 6 47 20 79 23 55 23 60 7 75 -9 9
-14 10 -10 4 4 -7 2 -13 -4 -13 -6 0 -8 -4 -5 -10 3 -5 1 -10 -4 -10 -6 0 -11
-4 -11 -10 0 -5 7 -7 15 -4 8 4 15 1 15 -5 0 -6 -4 -11 -10 -11 -5 0 -10 -7
-10 -16 0 -8 -6 -22 -14 -30 -18 -17 -32 -19 -18 -1 6 7 11 32 10 55 0 23 5
49 12 57 7 8 10 21 7 28 -3 8 1 14 9 14 7 0 16 -7 19 -15 9 -24 38 23 30 48
-8 25 -31 26 -44 3 -6 -10 -11 -13 -11 -7 0 24 128 257 187 342 128 181 358
420 391 407 7 -2 11 -1 8 4 -8 13 41 54 55 46 7 -5 10 -4 6 2 -7 11 113 95
213 150 69 38 173 80 270 109 92 28 260 32 360 9z m890 -43 c0 -4 18 -6 40 -4
26 3 40 0 40 -8 0 -6 -4 -9 -9 -6 -17 11 -19 -33 -2 -47 21 -19 66 -33 57 -18
-11 16 3 13 32 -8 15 -10 47 -25 72 -32 25 -7 50 -17 55 -22 6 -6 1 -7 -15 -3
-65 19 -67 19 -64 -6 4 -34 4 -34 13 -20 10 17 72 3 79 -17 3 -8 0 -11 -7 -7
-6 4 -11 2 -11 -3 0 -6 9 -11 20 -11 13 0 17 5 14 14 -4 11 0 13 18 9 21 -6
22 -5 9 10 -7 9 -21 17 -30 17 -13 0 -14 2 -2 9 11 7 20 3 33 -11 17 -20 17
-22 1 -40 -16 -18 -16 -18 3 -12 10 4 16 4 13 0 -6 -6 46 -66 57 -66 2 0 4 8
4 18 1 10 6 4 14 -14 8 -18 19 -35 25 -38 6 -4 3 10 -5 30 -8 19 -10 33 -5 29
6 -3 11 -11 11 -17 0 -5 9 -21 20 -35 11 -14 20 -33 20 -42 0 -10 -3 -12 -8
-5 -4 6 -17 14 -29 18 -13 4 -23 11 -23 16 0 4 -13 13 -30 19 -40 14 -40 -7 0
-34 16 -11 30 -26 30 -33 0 -6 11 -22 25 -34 14 -12 25 -27 25 -34 0 -7 6 -14
13 -17 6 -2 9 -7 6 -11 -10 -11 -59 13 -59 29 0 8 -2 15 -4 15 -2 0 -13 3 -23
6 -17 5 -17 5 0 -6 9 -6 17 -15 17 -19 0 -5 -93 -7 -207 -4 -202 5 -458 -12
-550 -37 -36 -9 -43 -5 -43 26 0 41 -49 178 -85 238 -19 32 -35 60 -35 62 0 7
234 121 275 134 65 21 205 36 205 22z m124 -55 c-7 -20 -48 -24 -41 -4 2 6 13
10 23 9 15 -3 17 -1 7 9 -7 7 -13 18 -13 23 0 6 7 3 15 -5 9 -9 13 -23 9 -32z
m69 5 c14 7 22 4 37 -14 11 -13 19 -27 20 -33 0 -5 -7 1 -16 13 -9 13 -20 19
-27 15 -24 -15 -43 -12 -55 8 -12 18 -11 19 5 10 12 -6 25 -6 36 1z m205 -187
c-3 -3 -9 2 -12 12 -6 14 -5 15 5 6 7 -7 10 -15 7 -18z m167 -145 c3 -11 1
-28 -5 -37 -10 -16 -11 -15 -7 5 3 12 -1 29 -10 37 -13 13 -13 15 1 15 8 0 17
-9 21 -20z m-67 -12 c-5 -15 -23 -11 -26 6 -2 11 2 14 13 10 9 -4 14 -11 13
-16z m82 -62 c0 -2 -7 -6 -15 -10 -8 -3 -15 -1 -15 4 0 6 7 10 15 10 8 0 15
-2 15 -4z m-198 -25 c89 -10 137 -31 138 -61 1 -28 60 -81 95 -86 32 -5 55
-18 55 -31 0 -12 -3 -13 -14 -4 -7 6 -21 9 -30 5 -9 -3 -16 -2 -16 4 0 5 -9
12 -21 15 -16 4 -18 3 -8 -9 9 -12 6 -14 -20 -14 -18 0 -31 5 -31 13 0 8 -3 8
-8 2 -4 -6 -41 -12 -82 -13 -168 -6 -345 -45 -472 -106 -64 -31 -68 -31 -74
-13 -8 25 -73 97 -88 97 -15 1 -183 156 -176 164 10 9 199 37 314 45 130 10
315 6 438 -8z m186 -43 c5 -7 6 -22 2 -33 -7 -19 -7 -19 -18 2 -21 38 -8 61
16 31z m118 -65 c-11 -11 -17 4 -9 23 7 18 8 18 11 1 2 -10 1 -21 -2 -24z
m-41 -3 c3 -5 1 -10 -4 -10 -6 0 -11 5 -11 10 0 6 2 10 4 10 3 0 8 -4 11 -10z
m88 -32 c-4 -7 -8 -17 -9 -23 0 -5 -2 -15 -2 -22 -1 -6 -11 -9 -23 -6 -15 4
-17 8 -8 14 7 4 17 5 21 3 4 -3 8 -1 8 5 0 5 -5 13 -11 17 -8 4 -7 9 2 15 20
13 31 11 22 -3z m-194 -68 c53 0 72 -4 89 -20 25 -24 47 -26 38 -5 -10 28 13
15 29 -16 l17 -31 -29 6 c-15 3 -45 8 -66 10 -21 3 -45 10 -53 17 -8 7 -14 7
-14 1 0 -5 -37 -13 -82 -17 -136 -11 -313 -44 -437 -82 -129 -39 -134 -41
-126 -53 3 -5 37 2 75 15 97 33 243 63 385 80 166 20 224 19 241 -2 11 -16 13
-16 14 -2 0 20 60 13 60 -7 0 -8 14 -17 30 -21 32 -6 50 -28 50 -62 0 -10 6
-22 13 -24 6 -3 -11 -6 -40 -6 -56 -1 -83 15 -83 51 0 20 1 20 20 3 11 -10 17
-21 15 -25 -3 -4 6 -10 20 -12 33 -7 50 14 35 41 -15 28 -18 26 -13 -6 l4 -28
-25 28 c-14 15 -30 27 -36 27 -5 0 -10 6 -10 14 0 8 -5 18 -10 21 -6 4 -10 -5
-11 -22 0 -76 -3 -83 -36 -89 -18 -3 -45 -3 -59 0 -15 4 -30 3 -33 -2 -3 -6
-28 -12 -56 -15 -67 -8 -321 -73 -401 -103 -79 -29 -94 -30 -94 -4 0 12 -7 35
-16 52 l-16 31 -146 -6 c-181 -7 -294 -26 -482 -83 -233 -69 -442 -103 -647
-104 -67 0 -114 36 -116 90 -2 32 0 34 38 43 22 5 177 44 345 88 379 98 497
121 622 121 103 0 163 -10 266 -45 l63 -21 22 27 c46 56 284 134 447 146 58 4
111 6 118 5 8 -2 44 -4 81 -4z m262 -256 c91 -17 230 -67 254 -90 8 -8 19 -33
25 -54 20 -76 -20 -127 -131 -168 -61 -23 -69 -21 -69 14 0 13 -11 54 -25 91
-38 105 -121 173 -214 173 -35 0 -140 -29 -185 -52 -94 -47 -141 -117 -160
-237 l-11 -76 -70 3 c-84 4 -141 16 -215 43 -73 26 -86 47 -61 97 10 20 22 56
26 79 4 24 13 44 23 48 136 56 354 110 552 139 65 9 186 5 261 -10z m-871 -50
c6 -14 10 -55 10 -92 0 -84 -26 -134 -94 -179 -54 -37 -66 -40 -66 -18 0 33
-43 124 -76 164 -69 81 -166 107 -284 77 -164 -42 -233 -115 -247 -262 -3 -35
-7 -64 -9 -64 -17 0 -179 66 -222 91 -88 50 -166 111 -150 119 7 4 49 10 93
13 104 8 253 39 390 81 217 67 354 90 563 94 80 2 83 1 92 -24z m620 -84 c23
-43 -20 -92 -60 -70 -20 11 -26 43 -14 74 9 24 61 21 74 -4z m-1130 -34 c16
-21 9 -56 -15 -72 -41 -27 -88 39 -53 74 16 16 53 15 68 -2z m1288 -49 c6 -6
13 -24 17 -39 9 -36 -34 -83 -68 -73 -69 21 -58 125 13 125 15 0 32 -6 38 -13z
m-1108 -37 c39 -39 15 -110 -37 -110 -28 0 -63 33 -63 59 0 26 38 71 61 71 10
0 28 -9 39 -20z m905 -70 c0 -29 -32 -41 -41 -16 -9 24 4 48 23 44 12 -2 18
-12 18 -28z m-1095 -35 c15 -18 6 -45 -13 -45 -8 0 -20 7 -27 15 -10 12 -10
18 0 30 16 19 24 19 40 0z m1500 -27 c0 -19 -2 -20 -10 -8 -13 19 -13 30 0 30
6 0 10 -10 10 -22z m-110 -8 c0 -5 -4 -10 -9 -10 -6 0 -13 5 -16 10 -3 6 1 10
9 10 9 0 16 -4 16 -10z m-83 -52 c1 -17 7 -36 12 -41 13 -13 33 2 26 20 -4 13
-3 14 9 4 13 -11 13 -15 -2 -31 -18 -19 -22 -56 -8 -78 9 -15 -1 -32 -20 -32
-8 0 -14 -5 -14 -12 0 -9 -3 -9 -12 0 -10 10 -9 18 4 40 19 32 13 82 -9 82
-13 0 -13 2 -2 17 11 13 11 17 2 20 -7 3 -13 13 -13 24 0 32 25 21 27 -13z
m123 -20 c0 -17 -18 -44 -24 -37 -8 7 5 49 15 49 5 0 9 -6 9 -12z m94 -42 c-3
-8 -16 -13 -30 -12 -30 1 -31 13 -1 19 12 2 25 5 29 6 4 0 5 -5 2 -13z m-424
-6 c0 -5 -4 -10 -10 -10 -5 0 -10 5 -10 10 0 6 5 10 10 10 6 0 10 -4 10 -10z
m110 -14 c0 -3 -4 -8 -10 -11 -5 -3 -10 -1 -10 4 0 6 5 11 10 11 6 0 10 -2 10
-4z m66 -44 c-14 -14 -16 -14 -16 -1 0 20 23 44 29 28 2 -6 -4 -18 -13 -27z
m254 11 c0 -19 -13 -9 -16 12 -1 8 2 13 7 9 5 -3 9 -12 9 -21z m-280 3 c0 -3
-4 -8 -10 -11 -5 -3 -10 -1 -10 4 0 6 5 11 10 11 6 0 10 -2 10 -4z m310 -50
c0 -11 -19 -15 -25 -6 -3 5 1 10 9 10 9 0 16 -2 16 -4z m-197 -37 c-6 -6 -9
-18 -6 -25 3 -8 1 -14 -5 -14 -5 0 -12 -12 -15 -26 -3 -18 -1 -24 9 -20 8 3
14 -1 14 -9 0 -8 5 -15 10 -15 6 0 10 8 10 18 0 28 18 -6 25 -49 6 -32 9 -36
28 -31 l22 5 -22 -20 c-25 -22 -29 -43 -12 -60 10 -10 3 -63 -10 -63 -3 0 -17
21 -31 47 -14 26 -39 66 -56 89 -54 70 -57 81 -34 104 11 11 20 32 21 48 0 24
1 25 9 7 5 -11 9 -15 9 -8 1 15 32 46 39 38 3 -3 1 -10 -5 -16z m212 11 c3 -5
1 -10 -4 -10 -6 0 -11 5 -11 10 0 6 2 10 4 10 3 0 8 -4 11 -10z m-298 -62 c-3
-8 -6 -5 -6 6 -1 11 2 17 5 13 3 -3 4 -12 1 -19z m-32 -16 c-3 -3 -11 0 -18 7
-9 10 -8 11 6 5 10 -3 15 -9 12 -12z m408 -80 c3 -16 0 -40 -8 -55 -14 -28 -5
-44 18 -31 6 5 -3 -9 -21 -30 -33 -38 -42 -94 -14 -88 6 1 12 -4 12 -12 0 -18
-38 -17 -44 1 -7 18 -26 16 -26 -2 0 -8 5 -15 11 -15 5 0 7 -4 4 -10 -3 -5 -2
-10 4 -10 5 0 13 5 16 10 8 13 25 3 25 -13 0 -7 -4 -19 -10 -27 -8 -12 -11
-12 -28 3 -23 21 -52 22 -52 2 0 -8 -4 -15 -8 -15 -15 0 -28 -43 -31 -100 -3
-57 -8 -73 -14 -49 -22 76 -46 203 -41 211 4 6 2 8 -4 4 -6 -3 -13 2 -17 13
-7 24 22 62 41 54 8 -3 14 0 14 6 0 7 -7 14 -15 17 -8 4 -13 10 -10 14 3 5 19
3 36 -3 26 -10 32 -9 43 6 17 23 26 22 26 -3 0 -18 2 -19 20 -8 11 7 18 18 16
25 -3 7 1 10 10 6 10 -3 14 2 14 18 0 12 5 37 12 55 13 37 4 74 -14 56 -20
-20 -33 -13 -32 18 1 17 2 33 3 36 3 15 59 -58 64 -84z m-173 28 c0 -5 -2 -10
-4 -10 -3 0 -8 5 -11 10 -3 6 -1 10 4 10 6 0 11 -4 11 -10z m137 -42 c-3 -8
-6 -5 -6 6 -1 11 2 17 5 13 3 -3 4 -12 1 -19z m-3057 8 c0 -3 -4 -8 -10 -11
-5 -3 -10 -1 -10 4 0 6 5 11 10 11 6 0 10 -2 10 -4z m2964 -97 c-8 -14 -24
-10 -24 6 0 9 6 12 15 9 8 -4 12 -10 9 -15z m-3058 -4 c-11 -8 -22 -12 -25 -9
-6 6 19 24 34 24 6 -1 1 -7 -9 -15z m251 -2 c6 4 19 0 29 -8 10 -8 26 -15 35
-15 18 0 29 -20 28 -48 0 -14 -2 -13 -10 3 -13 26 -66 57 -75 44 -3 -6 2 -17
12 -24 18 -14 18 -14 0 -15 -13 0 -17 -5 -13 -19 3 -13 0 -18 -8 -15 -7 3 -15
-2 -18 -10 -4 -10 -1 -16 8 -16 8 0 15 -4 15 -10 0 -15 -30 -12 -32 3 0 6 -2
17 -2 22 -1 6 -6 16 -10 24 -7 11 -5 13 10 7 10 -4 15 -4 11 0 -4 4 -3 12 3
19 5 6 6 22 3 34 -6 23 -7 23 -20 6 -12 -18 -13 -18 -13 2 0 23 21 36 31 20 4
-5 11 -7 16 -4z m-172 -20 c-3 -15 -7 -32 -8 -38 -1 -5 9 -11 23 -13 14 -2 30
-8 35 -14 7 -6 7 -9 0 -8 -22 5 -36 -1 -30 -11 4 -6 13 -8 20 -5 8 3 11 -2 8
-15 -6 -23 -10 -24 -31 -3 -15 15 -16 15 -23 -2 -3 -11 -2 -21 2 -24 5 -4 11
-22 15 -40 l5 -35 -17 33 c-9 17 -20 32 -25 32 -5 0 -9 5 -9 11 0 17 -29 41
-41 34 -6 -4 -13 3 -16 15 -3 13 -11 19 -19 16 -21 -8 -17 11 8 34 13 12 24
16 28 10 10 -16 40 0 51 26 12 34 33 31 24 -3z m308 -23 c3 -14 1 -20 -6 -17
-7 2 -13 13 -13 25 -1 26 11 20 19 -8z m-703 10 c0 -5 -2 -10 -4 -10 -3 0 -8
5 -11 10 -3 6 -1 10 4 10 6 0 11 -4 11 -10z m870 -5 c0 -8 -8 -15 -17 -14 -11
0 -13 3 -5 6 6 2 10 9 6 14 -3 5 0 9 5 9 6 0 11 -7 11 -15z m-390 -5 c0 -5 -5
-10 -11 -10 -5 0 -7 5 -4 10 3 6 8 10 11 10 2 0 4 -4 4 -10z m356 -55 c-17
-17 -21 -9 -10 20 5 11 10 13 17 6 6 -6 4 -15 -7 -26z m-206 -25 c6 -11 8 -20
6 -20 -3 0 -10 9 -16 20 -6 11 -8 20 -6 20 3 0 10 -9 16 -20z m182 -38 c-7 -2
-12 -10 -12 -17 0 -8 -4 -16 -10 -20 -5 -3 -5 7 1 25 7 18 15 27 22 23 8 -5 8
-8 -1 -11z m-328 -8 c9 -3 16 -1 16 5 0 6 10 11 22 11 17 0 19 -3 10 -12 -16
-16 -15 -28 2 -28 8 0 17 -7 20 -16 10 -25 7 -37 -7 -31 -7 2 -17 -5 -23 -17
-9 -19 -7 -22 10 -22 15 1 22 -10 32 -46 10 -40 10 -48 -2 -48 -8 0 -14 5 -14
10 0 6 -4 10 -10 10 -5 0 -10 -7 -10 -15 0 -8 5 -14 11 -12 7 1 14 -13 16 -30
3 -27 1 -32 -12 -27 -11 5 -14 2 -8 -12 4 -12 3 -15 -5 -10 -16 10 -15 53 1
60 6 3 1 3 -13 0 -14 -4 -28 -12 -32 -18 -4 -7 -9 -5 -13 6 -4 9 -18 19 -31
22 -14 4 -22 11 -18 17 5 8 8 8 13 1 9 -15 51 -11 51 4 0 7 -8 10 -19 7 -10
-3 -22 1 -27 8 -5 9 -2 11 9 6 8 -3 21 1 27 9 10 11 9 14 -8 14 -22 0 -47 32
-34 44 3 4 0 11 -7 15 -10 7 -9 10 8 16 24 7 28 25 5 25 -12 0 -14 7 -9 31 5
22 4 29 -4 25 -6 -4 -11 -2 -11 4 0 12 24 9 64 -6z m-134 -9 c0 -8 -4 -15 -10
-15 -5 0 -10 7 -10 15 0 8 5 15 10 15 6 0 10 -7 10 -15z m-46 -11 c5 -14 4
-15 -9 -4 -17 14 -19 20 -6 20 5 0 12 -7 15 -16z m598 -6 c-7 -7 -12 -8 -12
-2 0 14 12 26 19 19 2 -3 -1 -11 -7 -17z m-295 -45 c3 -46 -8 -61 -27 -38 -11
13 -10 14 5 9 16 -6 17 -3 11 22 -4 16 -12 31 -17 32 -16 6 -10 24 8 20 12 -2
18 -15 20 -45z m283 9 c0 -17 -22 -84 -30 -92 -3 -3 -11 -16 -18 -29 -9 -16
-10 -21 -2 -16 9 5 10 1 5 -15 -4 -13 -3 -20 2 -17 5 3 9 -3 9 -14 0 -12 -7
-19 -18 -19 -10 0 -27 -9 -38 -20 -26 -26 -49 -26 -25 0 14 15 15 23 6 33 -8
11 -8 21 4 43 8 16 15 34 15 41 0 7 6 16 13 20 22 13 28 53 9 53 -14 0 -14 2
-3 9 11 7 10 11 -5 20 -17 9 -16 10 7 11 15 0 30 7 33 16 5 13 9 14 21 4 8 -7
15 -19 15 -28z m2580 31 c0 -5 -5 -15 -10 -23 -8 -12 -10 -11 -10 8 0 12 5 22
10 22 6 0 10 -3 10 -7z m-2507 -66 c3 -7 -3 -13 -14 -14 -12 -1 -16 3 -12 13
6 18 19 18 26 1z m2333 -24 c-4 -9 -1 -20 6 -25 10 -6 10 -10 -2 -18 -10 -6
-16 -6 -18 1 -5 13 7 59 14 59 3 0 3 -8 0 -17z m-2346 -40 c0 -20 -3 -24 -11
-16 -7 7 -9 19 -6 27 10 24 17 19 17 -11z m-250 -32 c0 -23 -16 -36 -25 -21
-3 5 -1 10 5 10 7 0 10 7 6 15 -3 8 -1 15 4 15 6 0 10 -9 10 -19z m2710 -50
c0 -6 -4 -13 -10 -16 -5 -3 -10 1 -10 9 0 9 5 16 10 16 6 0 10 -4 10 -9z
m-2815 -93 c5 -19 3 -28 -5 -28 -6 0 -8 5 -5 10 3 6 3 16 -2 23 -11 17 -13 41
-3 31 5 -5 12 -21 15 -36z m-35 12 c6 -11 7 -20 2 -20 -6 0 -12 9 -15 20 -3
11 -3 20 -1 20 2 0 8 -9 14 -20z m145 -40 c-8 -26 -17 -25 -34 3 -13 20 -13
21 2 8 15 -12 16 -10 11 20 -6 34 -6 34 11 11 9 -13 14 -30 10 -42z m213 10
c11 11 24 20 27 20 3 0 5 -20 5 -45 0 -25 -4 -45 -8 -45 -10 0 -9 -31 2 -48 4
-7 5 -16 2 -19 -3 -4 -6 -1 -6 5 0 7 -4 12 -10 12 -9 0 8 -49 21 -60 3 -3 9
-24 12 -46 l7 -41 -35 16 c-35 16 -60 59 -56 94 2 10 -4 26 -12 35 -8 10 -18
27 -22 40 -5 18 -11 21 -27 16 -16 -5 -20 -3 -15 9 3 9 1 17 -4 19 -12 4 7 59
24 70 7 4 25 -5 42 -22 l31 -30 22 20z m-452 5 c-7 -19 4 -26 25 -14 15 8 21
3 38 -33 18 -39 18 -44 4 -55 -26 -20 -73 23 -79 72 -1 11 -5 28 -9 38 -6 13
-3 16 9 11 10 -4 15 -12 12 -19z m109 -25 c3 -6 -1 -10 -9 -10 -8 0 -20 9 -26
21 -11 19 -10 20 9 10 11 -6 23 -16 26 -21z m140 -40 c-3 -5 -12 -10 -18 -10
-7 0 -6 4 3 10 19 12 23 12 15 0z m-140 -11 c11 -17 -1 -21 -15 -4 -8 9 -8 15
-2 15 6 0 14 -5 17 -11z m240 -23 c19 8 41 -24 26 -39 -15 -15 -41 1 -53 33
-7 19 -6 22 3 13 6 -6 17 -9 24 -7z m2492 8 c-3 -3 -12 -4 -19 -1 -8 3 -5 6 6
6 11 1 17 -2 13 -5z m-2 -35 c-3 -4 -12 -6 -20 -3 -8 4 -13 10 -10 15 3 4 12
6 20 3 8 -4 13 -10 10 -15z m-2555 -4 c8 -9 9 -15 2 -15 -6 0 -14 5 -18 11 -4
8 -9 7 -15 -2 -5 -8 -9 -9 -9 -3 0 26 22 31 40 9z m54 -24 c4 -5 -3 -7 -14 -4
-23 6 -26 13 -6 13 8 0 17 -4 20 -9z m466 -76 c74 -9 225 -32 335 -51 465 -83
725 -112 1080 -120 289 -7 290 -7 289 -27 -1 -8 4 -13 11 -11 15 6 28 -23 15
-31 -6 -4 -10 -1 -10 5 0 7 -7 10 -15 6 -8 -3 -15 -2 -15 3 0 12 -63 23 -84
15 -24 -9 -19 -27 5 -21 16 4 19 3 11 -5 -8 -8 -7 -15 6 -24 16 -12 15 -13 -5
-14 -12 0 -23 -5 -25 -11 -2 -5 -12 -11 -21 -13 -10 -1 -22 -8 -27 -16 -4 -7
-22 -13 -39 -12 -17 0 -29 -4 -26 -9 4 -5 13 -9 21 -9 8 0 14 -6 14 -14 0 -8
3 -21 6 -30 4 -11 1 -16 -10 -16 -9 0 -16 6 -16 14 0 22 -23 35 -52 29 -19 -4
-28 -12 -28 -25 0 -18 1 -18 16 -3 15 14 19 15 31 2 12 -12 13 -18 1 -36 -7
-11 -20 -21 -28 -21 -13 0 -13 1 0 10 11 8 8 9 -14 6 -36 -6 -44 -15 -27 -26
25 -15 3 -37 -48 -50 -27 -6 -55 -9 -61 -5 -6 4 -18 1 -26 -6 -9 -7 -30 -14
-47 -14 -18 -1 -48 -5 -68 -9 -36 -6 -96 14 -82 27 3 4 1 7 -5 7 -5 0 -12 -5
-14 -11 -2 -5 -11 -11 -20 -12 -9 -2 -23 -9 -31 -16 -17 -14 -43 -4 -67 23
-14 17 -30 21 -30 8 0 -5 9 -20 20 -32 l21 -24 -26 -13 c-14 -8 -25 -18 -25
-24 0 -6 4 -8 8 -5 17 10 7 -39 -10 -52 -10 -7 -18 -20 -18 -28 0 -8 -4 -14
-10 -14 -5 0 -10 -7 -10 -15 0 -8 5 -16 10 -16 6 -1 14 -2 19 -3 5 0 13 -4 17
-8 7 -7 -5 -10 -65 -12 -30 -1 -38 -36 -10 -43 26 -7 14 -23 -17 -23 -21 0
-24 4 -19 20 4 12 2 20 -5 20 -7 0 -9 7 -6 16 4 9 2 13 -5 8 -6 -3 -9 -17 -6
-31 4 -22 2 -24 -20 -20 -31 6 -25 -15 8 -24 23 -7 23 -7 2 -8 -16 -1 -21 -5
-16 -17 4 -12 2 -15 -8 -12 -8 3 -13 13 -12 22 0 11 -4 15 -14 12 -11 -5 -13
-1 -8 17 5 17 4 19 -4 7 -6 -8 -11 -10 -11 -5 0 6 -5 2 -11 -7 -13 -23 -29
-23 -29 0 0 10 -7 19 -15 19 -9 0 -13 -8 -11 -21 2 -12 1 -15 -1 -8 -6 16 -18
15 -33 -3 -23 -27 -57 -18 -70 18 -14 41 -46 80 -60 72 -5 -3 -10 -1 -10 4 0
6 -7 11 -15 11 -8 0 -12 6 -9 14 3 8 1 17 -5 21 -6 3 -15 -6 -21 -20 -8 -22
-15 -26 -34 -21 -13 3 -26 3 -29 -1 -10 -9 36 -51 50 -46 7 3 13 1 13 -5 0
-16 -35 -20 -48 -6 -7 7 -19 11 -27 8 -8 -4 -15 -2 -15 4 0 5 -6 12 -14 15
-11 4 -11 1 -2 -19 8 -17 16 -22 30 -18 12 4 16 2 12 -5 -11 -18 -59 -7 -67
15 -7 17 -8 17 -8 2 -1 -10 -5 -18 -11 -18 -6 0 -6 -9 0 -25 11 -30 13 -29
-36 -8 -36 15 -37 17 -16 22 13 3 23 9 23 14 -1 4 -1 14 -1 23 0 12 -7 15 -24
12 -17 -4 -26 0 -29 12 -2 9 -12 17 -21 17 -11 0 -13 -4 -6 -11 19 -19 10 -27
-13 -11 -13 8 -27 12 -30 8 -4 -3 -7 -1 -7 4 0 6 5 13 11 15 9 3 9 9 1 24 -8
15 -8 21 1 22 11 1 50 7 70 11 15 2 6 22 -15 31 -13 5 -17 9 -10 9 16 1 16 21
-1 21 -7 0 -19 6 -25 12 -7 7 -20 13 -29 13 -9 0 -18 5 -20 12 -3 7 3 9 16 6
30 -8 26 11 -10 49 -21 22 -27 26 -20 11 14 -27 14 -33 1 -33 -6 0 -14 9 -18
20 -4 11 -27 30 -51 42 -47 24 -39 12 -155 250 -21 42 -36 81 -33 85 3 5 -12
20 -34 33 -21 14 -39 27 -39 30 0 9 104 5 119 -4 11 -7 13 -5 8 7 -5 13 -2 14
16 7 12 -4 21 -13 20 -19 -2 -6 -4 -17 -5 -23 -2 -8 9 -14 25 -16 33 -4 38 21
7 40 -11 7 -20 23 -20 36 0 13 -11 33 -25 46 -45 42 -48 41 135 21z m-125 -56
c11 -17 -1 -21 -15 -4 -8 9 -8 15 -2 15 6 0 14 -5 17 -11z m-225 -28 c0 -5 8
-12 18 -14 13 -4 12 -5 -4 -6 -12 0 -24 6 -28 14 -3 8 -1 15 4 15 6 0 10 -4
10 -9z m-130 -11 c0 -5 -2 -10 -4 -10 -3 0 -8 5 -11 10 -3 6 -1 10 4 10 6 0
11 -4 11 -10z m2180 -180 c0 -5 -9 -10 -20 -10 -11 0 -20 5 -20 10 0 6 9 10
20 10 11 0 20 -4 20 -10z m-83 -36 c-3 -3 -12 -4 -19 -1 -8 3 -5 6 6 6 11 1
17 -2 13 -5z m-181 -151 c-7 -7 -26 7 -26 19 0 6 6 6 15 -2 9 -7 13 -15 11
-17z m-1382 -215 c-5 -8 -64 14 -64 25 0 5 9 6 19 2 11 -3 23 0 27 6 5 9 9 7
14 -7 4 -10 6 -22 4 -26z m-4 -62 c0 -3 -4 -8 -10 -11 -5 -3 -10 -1 -10 4 0 6
5 11 10 11 6 0 10 -2 10 -4z m370 -36 c-16 -10 -30 -4 -30 11 0 6 5 7 10 4 6
-3 10 -1 10 6 0 10 3 10 12 1 10 -10 10 -15 -2 -22z m-440 8 c0 -11 -28 -10
-35 1 -3 6 4 9 15 8 11 -1 20 -5 20 -9z m-235 -16 c-3 -3 -11 0 -18 7 -9 10
-8 11 6 5 10 -3 15 -9 12 -12z m305 8 c0 -12 -37 -14 -44 -2 -2 4 6 9 20 10
13 1 24 -3 24 -8z m846 -15 c-17 -7 -33 -21 -37 -31 -7 -18 -8 -18 -8 -1 -1
26 20 46 49 46 25 -1 24 -1 -4 -14z m-1101 -5 c3 -5 1 -10 -4 -10 -6 0 -11 5
-11 10 0 6 2 10 4 10 3 0 8 -4 11 -10z m295 -5 c0 -8 7 -15 16 -15 8 0 12 -5
9 -11 -4 -6 -14 -8 -22 -5 -9 4 -21 -1 -29 -11 -9 -12 -13 -13 -14 -5 0 10 -5
10 -20 2 -17 -9 -20 -8 -20 11 0 22 -1 22 -20 4 -17 -15 -23 -16 -33 -5 -9 10
-9 11 1 6 6 -4 19 0 27 8 13 12 21 13 41 4 19 -9 27 -9 37 2 10 10 9 11 -3 5
-13 -8 -13 -7 -1 8 17 21 31 22 31 2z m390 -39 c0 -3 -4 -8 -10 -11 -5 -3 -10
-1 -10 4 0 6 5 11 10 11 6 0 10 -2 10 -4z m-350 -36 c0 -13 -11 -13 -30 0 -12
8 -11 10 8 10 12 0 22 -4 22 -10z m-100 -14 c0 -8 -5 -18 -12 -22 -7 -5 -9 -2
-5 9 3 9 1 18 -6 21 -7 2 -4 5 6 5 9 1 17 -5 17 -13z m693 -3 c-7 -2 -19 -2
-25 0 -7 3 -2 5 12 5 14 0 19 -2 13 -5z m-309 -12 c3 -5 -5 -8 -18 -7 -13 0
-22 4 -19 9 6 10 31 9 37 -2z m-324 -25 c0 -3 -4 -8 -10 -11 -5 -3 -10 -1 -10
4 0 6 5 11 10 11 6 0 10 -2 10 -4z m207 -2 c-3 -3 -12 -4 -19 -1 -8 3 -5 6 6
6 11 1 17 -2 13 -5z m-32 -44 c3 -5 1 -10 -4 -10 -6 0 -11 5 -11 10 0 6 2 10
4 10 3 0 8 -4 11 -10z"/>
<path d="M3553 5136 c4 -12 47 -18 47 -6 0 4 -11 10 -25 13 -16 3 -24 0 -22
-7z"/>
<path d="M1854 4556 c-10 -8 -15 -18 -11 -22 4 -4 15 0 24 9 22 21 12 31 -13
13z"/>
<path d="M1785 4471 c-10 -17 12 -21 25 -6 10 12 10 15 -3 15 -9 0 -18 -4 -22
-9z"/>
<path d="M1633 4310 c-1 -11 2 -18 8 -15 11 7 12 35 1 35 -4 0 -8 -9 -9 -20z"/>
<path d="M1620 4248 c0 -6 -3 -8 -7 -5 -8 9 -53 -57 -53 -77 0 -10 6 -13 15
-10 8 4 15 14 15 24 0 10 12 32 26 49 14 17 21 31 15 31 -6 0 -11 -5 -11 -12z"/>
<path d="M1650 4190 c0 -5 5 -10 10 -10 6 0 10 5 10 10 0 6 -4 10 -10 10 -5 0
-10 -4 -10 -10z"/>
<path d="M1713 4163 c4 -3 2 -12 -4 -20 -9 -9 -8 -13 0 -13 6 0 11 2 11 4 0 2
3 11 6 20 4 10 1 16 -7 16 -7 0 -9 -3 -6 -7z"/>
<path d="M1650 4137 c0 -11 -6 -17 -12 -14 -18 6 -68 -77 -63 -102 2 -12 0
-21 -6 -21 -5 0 -9 -4 -9 -10 0 -18 22 -10 27 10 3 11 9 17 15 14 5 -3 6 -15
2 -27 -6 -19 -5 -20 10 -8 9 7 16 22 16 33 0 15 5 18 16 14 14 -5 16 -1 11 24
-4 20 -2 30 5 30 9 0 9 3 0 12 -17 17 -15 33 3 18 19 -16 19 0 0 26 -14 18
-14 18 -15 1z"/>
<path d="M1560 4120 c-14 -11 -31 -20 -37 -20 -7 0 -13 -2 -13 -4 0 -2 -3 -12
-6 -20 -13 -33 57 9 77 46 12 22 10 22 -21 -2z"/>
<path d="M1562 3909 c-1 -27 2 -49 6 -49 4 0 8 12 7 28 0 15 3 29 6 32 4 3 2
13 -5 22 -10 13 -12 8 -14 -33z"/>
<path d="M1659 3868 c-6 -21 -5 -38 2 -38 5 0 9 9 9 20 0 16 -7 28 -11 18z"/>
<path d="M1650 3801 c0 -6 5 -13 10 -16 6 -3 10 1 10 9 0 9 -4 16 -10 16 -5 0
-10 -4 -10 -9z"/>
<path d="M1630 3759 c0 -5 5 -7 10 -4 6 3 10 8 10 11 0 2 -4 4 -10 4 -5 0 -10
-5 -10 -11z"/>
<path d="M1560 3692 c0 -7 -5 -12 -11 -12 -27 0 -59 -51 -59 -92 l0 -42 30 29
c31 29 41 47 16 26 -10 -8 -16 -9 -21 -1 -3 5 1 13 9 16 9 3 14 10 11 14 -3 4
5 20 16 34 12 15 19 30 15 33 -3 4 -6 1 -6 -5z"/>
<path d="M1700 3659 c0 -11 4 -18 10 -14 5 3 7 12 3 20 -7 21 -13 19 -13 -6z"/>
<path d="M1445 3620 c3 -5 10 -10 16 -10 5 0 9 5 9 10 0 6 -7 10 -16 10 -8 0
-12 -4 -9 -10z"/>
<path d="M1760 3566 c0 -7 7 -19 15 -26 16 -13 20 -3 9 24 -8 20 -24 21 -24 2z"/>
<path d="M1717 3528 c-5 -33 2 -54 10 -30 3 6 9 9 15 6 6 -4 8 5 6 22 -4 39
-25 41 -31 2z"/>
<path d="M1971 3540 c-8 -4 -21 -6 -30 -3 -12 3 -11 2 2 -7 23 -15 59 -9 49 7
-5 7 -13 9 -21 3z"/>
<path d="M2050 3530 c0 -5 5 -10 11 -10 5 0 7 5 4 10 -3 6 -8 10 -11 10 -2 0
-4 -4 -4 -10z"/>
<path d="M4296 3507 c3 -10 9 -15 12 -12 3 3 0 11 -7 18 -10 9 -11 8 -5 -6z"/>
<path d="M1840 3502 c0 -12 19 -26 26 -19 2 2 -2 10 -11 17 -9 8 -15 8 -15 2z"/>
<path d="M3465 3473 c-106 -60 -268 -140 -352 -173 -46 -18 -83 -37 -83 -41 0
-13 11 -11 76 14 99 40 245 109 334 160 93 53 106 62 93 70 -4 2 -35 -11 -68
-30z"/>
<path d="M1510 3479 c-17 -30 -6 -34 14 -4 9 14 12 25 7 25 -6 0 -15 -9 -21
-21z"/>
<path d="M1859 3468 c-11 -7 -11 -11 -1 -15 6 -2 12 -9 12 -14 0 -6 -6 -7 -12
-3 -7 4 -4 -2 6 -14 21 -24 36 -28 36 -11 0 7 7 17 16 23 35 26 -21 59 -57 34z"/>
<path d="M1768 3463 c7 -3 16 -2 19 1 4 3 -2 6 -13 5 -11 0 -14 -3 -6 -6z"/>
<path d="M2080 3460 c0 -5 5 -10 11 -10 5 0 7 5 4 10 -3 6 -8 10 -11 10 -2 0
-4 -4 -4 -10z"/>
<path d="M4305 3460 c-3 -5 -1 -10 4 -10 6 0 11 5 11 10 0 6 -2 10 -4 10 -3 0
-8 -4 -11 -10z"/>
<path d="M1720 3450 c0 -14 29 -27 76 -35 35 -5 43 -11 47 -33 3 -17 0 -30 -9
-35 -27 -15 -4 -26 24 -11 15 7 42 14 60 14 20 0 31 4 27 10 -3 6 -2 10 4 10
5 0 11 -5 13 -12 3 -9 48 -21 48 -12 0 8 -84 44 -103 44 -12 0 -44 11 -72 25
-27 13 -58 25 -67 25 -9 0 -20 5 -23 10 -8 13 -25 13 -25 0z"/>
<path d="M2546 3442 c-2 -4 4 -8 14 -8 10 0 16 4 14 8 -3 4 -9 8 -14 8 -5 0
-11 -4 -14 -8z"/>
<path d="M1486 3424 c-4 -10 -1 -14 6 -12 15 5 23 28 10 28 -5 0 -13 -7 -16
-16z"/>
<path d="M2038 3423 c-28 -7 -21 -21 7 -15 14 2 25 8 25 13 0 9 -4 10 -32 2z"/>
<path d="M1550 3400 c0 -5 5 -10 11 -10 5 0 7 5 4 10 -3 6 -8 10 -11 10 -2 0
-4 -4 -4 -10z"/>
<path d="M1780 3390 c0 -5 5 -10 11 -10 5 0 7 5 4 10 -3 6 -8 10 -11 10 -2 0
-4 -4 -4 -10z"/>
<path d="M3607 3386 c-4 -10 -1 -13 9 -9 15 6 19 23 5 23 -5 0 -11 -7 -14 -14z"/>
<path d="M1810 3380 c0 -5 5 -10 11 -10 5 0 7 5 4 10 -3 6 -8 10 -11 10 -2 0
-4 -4 -4 -10z"/>
<path d="M2410 3381 c0 -5 5 -13 10 -16 6 -3 10 -2 10 4 0 5 -4 13 -10 16 -5
3 -10 2 -10 -4z"/>
<path d="M1560 3370 c-8 -5 -10 -10 -5 -10 6 0 17 5 25 10 8 5 11 10 5 10 -5
0 -17 -5 -25 -10z"/>
<path d="M2480 3369 c0 -5 -4 -7 -10 -4 -5 3 -10 1 -10 -4 0 -13 3 -13 24 -5
18 7 22 24 6 24 -5 0 -10 -5 -10 -11z"/>
<path d="M2380 3361 c0 -5 7 -12 16 -15 24 -9 28 -7 14 9 -14 17 -30 20 -30 6z"/>
<path d="M1496 3335 c-3 -8 -1 -15 4 -15 6 0 10 7 10 15 0 8 -2 15 -4 15 -2 0
-6 -7 -10 -15z"/>
<path d="M1545 3330 c-3 -6 -13 -22 -22 -38 -12 -23 -14 -23 -10 -4 4 15 0 22
-9 22 -21 0 -12 -53 9 -56 9 -1 17 2 17 7 0 4 7 6 15 3 12 -5 14 0 9 25 -4 20
-3 31 5 31 6 0 11 5 11 10 0 13 -17 13 -25 0z"/>
<path d="M2441 3321 c-10 -6 -10 -10 -1 -16 13 -8 24 -1 19 14 -3 6 -10 7 -18
2z"/>
<path d="M3780 3310 c0 -5 6 -10 14 -10 8 0 18 5 21 10 3 6 -3 10 -14 10 -12
0 -21 -4 -21 -10z"/>
<path d="M1970 3300 c0 -5 5 -10 10 -10 6 0 10 5 10 10 0 6 -4 10 -10 10 -5 0
-10 -4 -10 -10z"/>
<path d="M2296 3295 c4 -8 10 -12 15 -9 11 6 2 24 -11 24 -5 0 -7 -7 -4 -15z"/>
<path d="M2393 3292 c9 -11 7 -17 -6 -27 -9 -6 -14 -15 -10 -19 4 -4 1 -11 -7
-16 -13 -9 -13 -10 0 -11 8 0 4 -4 -9 -8 -19 -5 -25 -15 -28 -44 -4 -42 -5
-41 34 -26 19 7 24 12 14 18 -10 7 -9 15 3 46 14 32 18 36 31 25 9 -7 19 -9
23 -5 4 4 1 10 -5 12 -7 3 -13 20 -13 38 0 27 -4 33 -19 32 -16 -1 -18 -4 -8
-15z"/>
<path d="M3690 3295 c-7 -9 -10 -18 -7 -21 3 -3 10 4 17 15 13 25 8 27 -10 6z"/>
<path d="M3756 3296 c4 -10 1 -16 -7 -16 -11 0 -11 -3 1 -10 8 -5 19 -10 23
-10 13 0 3 43 -11 48 -7 2 -10 -2 -6 -12z"/>
<path d="M1994 3289 c-3 -6 -1 -16 5 -22 8 -8 11 -5 11 11 0 24 -5 28 -16 11z"/>
<path d="M2332 3283 c-10 -4 -10 -8 0 -21 11 -13 10 -15 -4 -9 -20 7 -25 -8
-7 -19 16 -10 43 21 33 38 -5 9 -15 13 -22 11z"/>
<path d="M3645 3271 c-3 -5 -1 -12 5 -16 5 -3 10 1 10 9 0 18 -6 21 -15 7z"/>
<path d="M3790 3259 c0 -5 5 -7 10 -4 6 3 10 8 10 11 0 2 -4 4 -10 4 -5 0 -10
-5 -10 -11z"/>
<path d="M1546 3233 c-4 -9 -2 -21 4 -27 7 -7 10 -7 10 1 0 6 3 18 6 27 3 9 2
16 -4 16 -5 0 -13 -8 -16 -17z"/>
<path d="M2154 3230 c0 -11 5 -19 11 -17 5 2 10 10 10 17 0 7 -5 15 -10 17 -6
2 -11 -6 -11 -17z"/>
<path d="M3681 3236 c-17 -20 -6 -36 25 -36 21 0 25 4 22 22 -4 27 -30 35 -47
14z"/>
<path d="M3865 3220 c-3 -5 -1 -10 4 -10 6 0 11 5 11 10 0 6 -2 10 -4 10 -3 0
-8 -4 -11 -10z"/>
<path d="M3753 3206 c0 -10 8 -13 26 -9 29 5 37 10 28 19 -4 4 -13 1 -22 -6
-10 -8 -15 -9 -15 -1 0 6 -4 11 -8 11 -5 0 -9 -6 -9 -14z"/>
<path d="M4420 3194 c0 -8 5 -12 10 -9 6 4 8 11 5 16 -9 14 -15 11 -15 -7z"/>
<path d="M1500 3183 c0 -4 5 -15 10 -23 8 -13 10 -13 10 2 0 9 -4 20 -10 23
-5 3 -10 3 -10 -2z"/>
<path d="M3737 3173 c-4 -3 -7 -15 -7 -25 0 -10 -7 -18 -17 -19 -11 0 -13 -3
-5 -6 6 -2 12 -13 12 -24 0 -10 7 -19 15 -19 22 0 18 -17 -7 -34 -27 -19 -24
-20 26 -2 33 11 36 15 21 23 -15 9 -16 11 -1 16 20 8 21 27 0 27 -8 0 -12 5
-9 11 4 5 8 21 10 35 1 17 -3 24 -15 24 -9 0 -20 -3 -23 -7z"/>
<path d="M4472 3165 c-7 -8 -26 -15 -43 -15 -18 0 -28 -4 -24 -10 4 -6 1 -18
-6 -26 -6 -8 -10 -17 -7 -19 3 -3 11 6 18 20 17 31 34 33 27 2 -4 -12 -1 -29
4 -37 9 -12 10 -11 6 7 -3 15 1 23 15 27 14 3 19 10 14 21 -3 9 -2 13 4 10 6
-3 10 -4 10 -1 0 2 3 11 6 20 8 20 -7 20 -24 1z"/>
<path d="M4544 3169 c-4 -7 0 -17 10 -24 15 -11 15 -13 -4 -26 -14 -10 -21
-28 -23 -60 -2 -25 -12 -57 -21 -71 -15 -22 -15 -26 -2 -31 18 -7 25 2 28 38
1 15 17 41 35 60 17 18 29 36 25 40 -4 4 2 13 12 21 14 10 16 14 5 14 -8 0
-19 10 -24 22 -12 26 -30 34 -41 17z"/>
<path d="M3792 3147 c-12 -14 13 -56 25 -42 5 4 2 10 -4 12 -7 3 -13 9 -13 14
0 11 23 7 32 -6 5 -6 8 -3 8 6 0 9 -7 20 -16 23 -21 8 -20 8 -32 -7z"/>
<path d="M4400 3073 c1 -18 18 -35 24 -24 4 6 4 16 1 21 -7 12 -25 13 -25 3z"/>
<path d="M2510 3051 c0 -18 30 -25 43 -11 9 10 9 11 -1 6 -7 -4 -19 -2 -27 4
-11 9 -15 9 -15 1z"/>
<path d="M4445 3040 c3 -5 10 -10 16 -10 5 0 9 5 9 10 0 6 -7 10 -16 10 -8 0
-12 -4 -9 -10z"/>
<path d="M2435 2910 c3 -5 11 -10 16 -10 6 0 7 5 4 10 -3 6 -11 10 -16 10 -6
0 -7 -4 -4 -10z"/>
<path d="M2380 2869 c0 -5 5 -7 10 -4 6 3 10 8 10 11 0 2 -4 4 -10 4 -5 0 -10
-5 -10 -11z"/>
<path d="M3605 2850 c-3 -5 1 -10 10 -10 9 0 13 5 10 10 -3 6 -8 10 -10 10 -2
0 -7 -4 -10 -10z"/>
<path d="M3606 2819 c3 -5 12 -9 21 -9 19 0 9 13 -12 16 -8 1 -13 -2 -9 -7z"/>
<path d="M4174 4745 c21 -16 32 -13 21 4 -3 6 -14 11 -23 11 -15 -1 -15 -2 2
-15z"/>
<path d="M4305 4510 c4 -6 11 -8 16 -5 14 9 11 15 -7 15 -8 0 -12 -5 -9 -10z"/>
<path d="M4432 4328 c2 -6 10 -14 16 -16 7 -2 10 2 6 12 -7 18 -28 22 -22 4z"/>
<path d="M4364 4208 c4 -10 8 -26 11 -35 4 -12 8 -14 17 -5 9 9 7 17 -10 35
-18 17 -22 18 -18 5z"/>
<path d="M4420 4180 c0 -19 3 -21 12 -12 9 9 9 15 0 24 -9 9 -12 7 -12 -12z"/>
<path d="M4580 3321 c0 -5 7 -12 16 -15 22 -9 24 -8 24 9 0 8 -9 15 -20 15
-11 0 -20 -4 -20 -9z"/>
<path d="M4787 3163 c-4 -3 -7 -11 -7 -17 0 -6 5 -5 12 2 6 6 9 14 7 17 -3 3
-9 2 -12 -2z"/>
<path d="M4720 3119 c0 -5 5 -7 10 -4 6 3 10 8 10 11 0 2 -4 4 -10 4 -5 0 -10
-5 -10 -11z"/>
<path d="M4770 3075 c-20 -25 -4 -29 21 -6 18 16 19 21 7 21 -9 0 -21 -7 -28
-15z"/>
<path d="M1847 3000 c-3 -11 -1 -20 4 -20 5 0 9 9 9 20 0 11 -2 20 -4 20 -2 0
-6 -9 -9 -20z"/>
<path d="M1920 2980 c0 -5 5 -10 11 -10 5 0 7 5 4 10 -3 6 -8 10 -11 10 -2 0
-4 -4 -4 -10z"/>
<path d="M2206 2787 c3 -10 9 -15 12 -12 3 3 0 11 -7 18 -10 9 -11 8 -5 -6z"/>
<path d="M1900 2631 c0 -5 5 -13 10 -16 6 -3 10 -2 10 4 0 5 -4 13 -10 16 -5
3 -10 2 -10 -4z"/>
<path d="M2574 2248 c-9 -14 23 -38 42 -31 10 4 11 10 3 24 -11 21 -34 25 -45
7z"/>
<path d="M4160 2249 c0 -5 5 -7 10 -4 6 3 10 8 10 11 0 2 -4 4 -10 4 -5 0 -10
-5 -10 -11z"/>
<path d="M2665 2241 c-5 -10 6 -15 63 -26 39 -8 44 11 6 25 -32 13 -61 13 -69
1z"/>
<path d="M3980 2189 c0 -5 5 -7 10 -4 6 3 10 8 10 11 0 2 -4 4 -10 4 -5 0 -10
-5 -10 -11z"/>
<path d="M4220 2190 c0 -5 5 -10 10 -10 6 0 10 5 10 10 0 6 -4 10 -10 10 -5 0
-10 -4 -10 -10z"/>
<path d="M2660 2181 c0 -5 7 -11 15 -15 8 -3 15 -1 15 3 0 5 -7 11 -15 15 -8
3 -15 1 -15 -3z"/>
<path d="M2709 2172 c-1 -4 -1 -11 0 -16 1 -4 -12 -6 -29 -4 -24 4 -30 1 -30
-14 0 -20 16 -25 22 -6 3 9 6 9 12 0 4 -7 2 -12 -4 -12 -6 0 -8 -5 -4 -12 5
-8 0 -9 -14 -6 -29 8 -28 -6 1 -20 38 -18 75 -23 80 -9 3 9 14 7 42 -8 43 -23
62 -52 26 -40 -22 7 -23 4 -12 -54 1 -3 7 3 14 14 14 18 15 18 55 -1 26 -12
42 -26 42 -37 0 -16 -2 -16 -24 -2 -22 15 -24 14 -29 -4 -3 -14 1 -21 18 -25
17 -4 24 -15 27 -40 2 -19 1 -33 -3 -30 -4 2 -10 0 -14 -6 -3 -5 -17 -7 -31
-4 -14 4 -24 2 -24 -5 0 -6 9 -11 20 -11 11 0 20 -5 20 -11 0 -6 5 -7 13 -2
12 8 17 9 37 12 5 0 7 7 4 15 -6 17 27 27 50 14 19 -11 19 -13 1 37 -18 52
-18 60 1 80 11 11 13 20 7 26 -7 7 -16 3 -27 -12 -12 -18 -19 -20 -27 -12 -9
9 -9 16 0 26 9 12 8 16 -5 21 -10 4 -20 2 -24 -4 -4 -6 -18 -8 -32 -5 -19 5
-24 12 -22 31 1 16 -2 22 -9 18 -8 -5 -7 -2 1 7 20 21 14 39 -13 39 -14 0 -25
5 -25 11 0 7 -10 9 -26 5 -17 -5 -23 -3 -19 4 3 5 -4 14 -17 19 -13 6 -17 10
-10 10 6 1 12 5 12 10 0 11 -30 23 -31 13z m249 -298 c-4 -3 -12 5 -18 18 -12
22 -12 22 6 6 10 -10 15 -20 12 -24z"/>
<path d="M3904 2109 c-9 -15 12 -28 59 -35 20 -4 40 -11 43 -15 8 -13 54 -11
54 2 0 7 -10 9 -25 7 -17 -4 -25 -1 -25 9 0 8 -6 13 -12 12 -38 -5 -60 2 -54
16 6 18 -29 21 -40 4z"/>
<path d="M2597 2059 c-7 -25 8 -68 23 -70 19 -3 25 -4 35 -11 6 -4 17 -3 24 1
17 11 -9 52 -49 81 -28 20 -28 20 -33 -1z"/>
<path d="M4010 2019 c0 -5 5 -7 10 -4 6 3 10 8 10 11 0 2 -4 4 -10 4 -5 0 -10
-5 -10 -11z"/>
<path d="M4006 1968 c3 -5 10 -6 15 -3 13 9 11 12 -6 12 -8 0 -12 -4 -9 -9z"/>
<path d="M3050 1847 c0 -14 5 -29 10 -32 7 -4 9 3 6 20 -7 37 -16 44 -16 12z"/>
<path d="M3083 1803 c-15 -5 -17 -23 -4 -23 5 0 11 7 15 15 3 8 4 15 3 14 -1
0 -8 -3 -14 -6z"/>
<path d="M3451 1791 c-8 -6 -9 -11 -3 -15 6 -3 14 -1 17 5 9 14 2 20 -14 10z"/>
<path d="M3020 1782 c0 -5 7 -13 16 -16 10 -4 14 -1 12 6 -5 15 -28 23 -28 10z"/>
<path d="M2877 1730 c3 -11 12 -20 20 -20 10 0 13 6 9 16 -3 9 -6 18 -6 20 0
2 -6 4 -14 4 -9 0 -12 -7 -9 -20z"/>
<path d="M3203 1687 c3 -10 2 -17 -3 -17 -18 0 -11 -19 11 -30 25 -14 40 -3
18 13 -9 7 -14 17 -12 24 2 6 -1 15 -8 19 -9 5 -10 2 -6 -9z"/>
</g>
</svg>
