<?xml version="1.0" standalone="no"?>
<!DOCTYPE svg PUBLIC "-//W3C//DTD SVG 20010904//EN"
 "http://www.w3.org/TR/2001/REC-SVG-20010904/DTD/svg10.dtd">
<svg version="1.0" xmlns="http://www.w3.org/2000/svg"
 width="500.000000pt" height="500.000000pt" viewBox="0 0 500.000000 500.000000"
 preserveAspectRatio="xMidYMid meet">

<g transform="translate(0.000000,500.000000) scale(0.100000,-0.100000)"
fill="#000000" stroke="none">
<path d="M2335 4113 c-22 -2 -95 -15 -162 -28 -111 -22 -135 -31 -280 -106
-162 -84 -265 -146 -342 -209 -109 -88 -283 -277 -317 -342 -9 -18 -20 -35
-25 -38 -33 -22 -99 -165 -170 -370 l-44 -125 1 -265 0 -265 37 -143 c55 -209
152 -411 288 -599 66 -92 336 -355 391 -382 27 -12 50 -27 54 -32 3 -5 12 -9
21 -9 9 0 24 -6 32 -14 9 -7 45 -23 81 -34 69 -22 170 -50 452 -122 42 -11
186 -8 206 4 7 4 29 2 50 -5 20 -7 73 -12 117 -12 138 2 227 19 338 67 56 24
113 47 127 51 86 25 291 164 398 269 46 44 104 113 129 151 26 39 63 90 84
115 20 25 42 62 49 82 6 21 16 40 21 43 5 4 9 22 9 41 0 19 5 34 10 34 6 0 10
12 10 27 0 14 6 34 13 42 7 9 20 36 27 61 7 25 19 57 26 71 7 14 9 31 4 38 -4
8 -2 28 6 47 8 18 16 58 19 89 2 30 10 65 16 77 15 28 22 401 9 483 -46 289
-156 556 -298 723 -151 178 -242 259 -407 363 -141 89 -270 143 -417 173 -68
14 -145 31 -173 37 -52 12 -321 20 -390 12z m425 -74 c52 -11 102 -21 110 -21
8 -1 20 -8 26 -16 7 -9 21 -13 37 -10 21 4 27 1 27 -13 0 -15 -8 -19 -35 -19
-44 0 -149 -39 -243 -91 l-72 -40 -48 40 c-100 83 -229 129 -375 134 -26 1
-43 4 -39 7 13 11 106 29 182 35 41 3 76 8 79 11 2 2 61 4 130 4 89 0 154 -6
221 -21z m-475 -64 c94 -17 217 -75 286 -134 26 -23 58 -65 77 -103 36 -69 65
-175 51 -184 -5 -3 -28 8 -51 24 -201 137 -444 149 -666 32 -86 -46 -118 -67
-110 -75 3 -3 34 12 70 35 100 63 195 92 317 98 125 6 188 -6 296 -58 72 -34
232 -159 234 -183 1 -4 -16 -4 -36 0 -65 13 -244 7 -333 -12 -108 -22 -252
-75 -355 -130 -44 -24 -97 -47 -117 -50 -21 -4 -38 -12 -38 -17 0 -18 64 4
195 68 223 108 422 148 621 125 132 -16 174 -41 174 -104 l0 -24 -81 24 c-115
33 -220 31 -402 -7 -79 -16 -162 -36 -183 -43 -22 -8 -119 -33 -216 -58 l-178
-44 0 -32 c0 -19 9 -43 23 -59 20 -23 34 -28 88 -32 55 -4 71 -9 114 -42 74
-56 191 -116 265 -135 148 -39 460 4 561 76 58 41 64 -19 7 -78 -35 -36 -71
-47 -216 -64 -197 -23 -402 14 -649 118 -7 3 -13 1 -13 -5 0 -23 206 -93 345
-118 111 -20 281 -21 398 -4 101 15 153 45 180 103 l17 35 53 -21 c44 -17 82
-22 237 -26 146 -5 184 -9 182 -19 -2 -9 4 -12 15 -8 12 4 23 -1 30 -13 10
-15 9 -18 -4 -17 -8 0 -20 -6 -26 -15 -14 -22 19 -67 52 -71 14 -2 27 -9 29
-17 3 -10 0 -12 -13 -7 -13 4 -16 2 -11 -9 3 -10 -3 -17 -20 -21 -30 -8 -36
-3 -36 31 0 15 -8 30 -19 36 -16 8 -19 6 -19 -11 0 -11 7 -23 15 -26 21 -8 19
-24 -2 -25 -15 0 -15 -2 2 -8 16 -7 9 -11 -37 -25 -64 -18 -240 -25 -260 -9
-7 5 -33 18 -58 28 -25 9 -51 19 -57 22 -8 3 -13 -3 -13 -16 0 -14 -6 -21 -20
-21 -11 0 -20 -5 -20 -11 0 -5 3 -9 8 -7 4 2 19 10 33 17 23 11 33 9 90 -19
35 -18 77 -41 92 -52 16 -11 31 -17 35 -13 4 4 -2 13 -12 21 -19 13 -19 14 5
15 75 2 147 12 242 35 21 5 27 3 27 -10 0 -9 -4 -16 -10 -16 -5 0 -7 -7 -4
-15 3 -8 11 -13 17 -12 7 1 11 -8 10 -20 -2 -13 2 -23 7 -23 6 0 10 6 10 14 0
28 20 27 44 -1 28 -31 96 -163 96 -184 0 -8 -7 -26 -14 -41 -9 -16 -11 -30 -5
-33 5 -4 9 -16 9 -29 0 -36 -65 -86 -111 -86 -21 0 -21 0 4 20 14 11 30 20 35
20 16 0 24 33 10 41 -7 5 -21 6 -32 3 -17 -6 -18 -2 -11 42 7 49 18 71 43 87
7 5 9 13 6 19 -4 6 0 15 7 20 11 7 11 11 2 15 -7 2 -13 11 -13 19 0 8 -4 14
-9 14 -17 0 -41 -12 -41 -21 0 -4 7 -6 15 -3 17 7 20 -7 6 -21 -6 -6 -12 -26
-14 -45 -2 -19 -9 -45 -15 -56 -6 -12 -8 -24 -5 -28 3 -3 0 -6 -8 -6 -9 0 -16
-11 -17 -27 -1 -15 -7 -32 -12 -37 -14 -14 -12 -43 3 -50 8 -3 6 -10 -9 -24
-40 -34 -198 -57 -394 -57 -200 1 -307 15 -548 76 -259 64 -418 80 -592 57
-27 -3 -86 -68 -96 -105 -11 -42 -22 -24 -18 29 2 28 9 55 16 60 10 5 8 8 -4
8 -19 0 -24 15 -9 24 5 4 12 0 14 -6 3 -8 6 -6 6 5 1 9 -3 17 -9 17 -5 0 -10
5 -10 11 0 6 6 9 13 6 15 -5 16 20 3 41 -4 6 -4 17 -1 22 3 6 2 10 -4 10 -5 0
-9 20 -9 44 1 35 6 47 22 54 12 6 16 11 9 11 -6 1 -9 10 -6 20 4 15 0 19 -14
17 -18 -3 -19 -6 -22 -46 -2 -28 -31 -26 -31 3 0 13 -5 28 -12 35 -9 9 -9 12
2 12 7 0 11 3 8 6 -4 3 -17 0 -30 -7 -12 -7 -34 -12 -47 -10 -15 2 -21 -1 -17
-8 4 -6 17 -11 29 -11 17 -1 19 -2 7 -9 -8 -5 -26 -7 -40 -6 -14 2 -29 4 -34
4 -4 1 -6 11 -3 24 4 12 2 29 -3 37 -8 12 -10 11 -10 -6 0 -17 -7 -21 -41 -22
-41 -2 -69 11 -69 30 0 5 5 6 10 3 6 -3 10 0 10 8 0 16 -27 30 -41 21 -5 -3
-9 2 -9 10 0 19 -39 31 -53 17 -13 -13 -27 -14 -27 -2 0 17 105 42 119 28 8
-8 11 -8 11 0 0 10 -15 17 -86 40 -28 9 -30 8 -27 -12 7 -34 -16 -46 -60 -33
-20 6 -37 15 -37 20 0 5 6 6 13 3 6 -4 4 0 -5 8 -10 8 -15 16 -13 19 3 3 -1
11 -9 17 -18 15 -38 5 -34 -17 1 -10 -1 -22 -4 -28 -4 -6 -2 -26 5 -44 9 -26
9 -34 0 -37 -7 -3 -13 -17 -13 -32 0 -33 -37 -68 -65 -63 -16 4 -17 2 -7 -11
12 -14 10 -15 -12 -9 -14 4 -25 9 -25 12 0 3 -4 17 -10 33 -8 20 -7 27 2 27 6
0 4 5 -5 11 -12 6 -18 22 -18 45 0 19 -4 33 -8 30 -4 -2 -13 -2 -19 2 -8 5 -8
20 -1 54 8 35 8 54 0 73 -6 14 -8 25 -4 25 4 0 8 12 9 27 0 15 9 33 20 41 14
12 15 14 1 9 -21 -7 -30 25 -13 50 17 25 25 62 15 68 -10 6 -7 24 14 83 12 34
13 42 2 42 -8 0 -17 -7 -20 -16 -4 -9 -2 -13 5 -8 17 10 0 -38 -19 -56 -14
-13 -15 -13 -3 2 7 10 10 26 6 38 -9 27 13 80 29 74 18 -7 38 20 30 40 -8 21
-20 20 -33 -1 -6 -10 -11 -15 -11 -11 0 14 112 227 126 239 12 10 13 8 8 -6
-5 -13 -4 -16 5 -11 7 5 10 15 7 23 -15 38 169 247 317 361 175 135 315 206
467 237 85 17 119 17 215 0z m765 -45 c9 -5 9 -9 1 -14 -17 -11 -4 -25 18 -19
13 3 18 11 14 21 -4 14 -3 15 5 3 7 -10 7 -21 0 -34 -8 -16 -7 -18 10 -13 11
4 24 0 32 -9 7 -8 19 -15 26 -15 10 0 13 -8 10 -25 -4 -21 -2 -24 11 -16 20
11 63 -6 59 -23 -2 -6 -1 -8 1 -3 8 13 28 7 41 -13 7 -12 16 -18 21 -15 5 2 8
-3 7 -13 0 -9 6 -17 14 -17 8 0 22 -7 30 -15 8 -9 12 -11 8 -6 -5 6 -8 15 -8
21 0 5 9 -3 20 -20 26 -40 25 -47 -5 -33 -14 6 -25 14 -25 18 0 4 -9 10 -20
13 -27 7 -25 -2 10 -40 20 -22 35 -31 46 -26 14 5 16 3 11 -11 -4 -10 -2 -27
4 -38 10 -19 9 -20 -7 -13 -74 30 -460 23 -631 -11 -28 -6 -29 -4 -42 58 -7
35 -28 92 -47 127 -19 35 -32 67 -27 71 18 18 132 74 193 96 65 24 192 32 220
14z m102 -32 c9 2 19 -1 22 -7 3 -5 -2 -8 -11 -7 -10 2 -21 -1 -24 -7 -4 -5
-12 0 -19 13 -10 18 -10 21 2 14 7 -5 20 -7 30 -6z m73 -68 c8 -13 -15 -13
-35 0 -12 8 -11 10 7 10 12 0 25 -4 28 -10z m38 -14 c4 -10 1 -13 -8 -9 -8 3
-12 9 -9 14 7 12 11 11 17 -5z m175 -192 c-3 -14 -5 -12 -10 9 -3 19 -2 25 4
19 6 -6 8 -18 6 -28z m-185 -59 c122 -14 139 -21 160 -62 12 -25 34 -40 91
-62 37 -15 29 -23 -12 -12 -18 5 -32 7 -32 3 0 -4 -52 -8 -116 -9 -127 -3
-250 -29 -358 -77 -33 -15 -60 -25 -61 -24 -21 39 -43 63 -73 83 -50 33 -148
123 -141 129 11 12 254 39 394 44 17 1 83 -5 148 -13z m197 -52 c0 -20 -24
-11 -28 10 -2 12 1 15 12 11 9 -3 16 -13 16 -21z m90 -18 c0 -8 -4 -15 -10
-15 -5 0 -7 7 -4 15 4 8 8 15 10 15 2 0 4 -7 4 -15z m-48 -112 c17 -15 21 -15
29 -3 8 13 10 13 19 0 18 -28 10 -32 -42 -24 -64 8 -50 9 -176 -5 -176 -19
-411 -79 -397 -102 3 -4 31 1 63 12 120 42 234 61 385 65 126 4 148 3 153 -11
3 -8 17 -15 29 -15 13 0 27 -5 31 -12 5 -7 2 -9 -8 -5 -12 4 -14 0 -10 -16 4
-18 -2 -14 -31 16 -34 36 -37 37 -37 15 -1 -70 2 -66 -51 -65 -27 1 -49 -1
-49 -4 0 -4 -21 -10 -47 -13 -68 -10 -236 -53 -314 -81 l-66 -23 -9 36 -9 37
-114 3 c-131 3 -230 -12 -401 -63 -63 -19 -151 -41 -195 -50 -81 -15 -281 -35
-300 -30 -5 2 -22 6 -37 9 -49 11 -76 96 -31 96 10 0 68 13 128 29 61 16 173
45 249 65 77 20 194 46 260 57 105 18 129 19 200 9 45 -6 105 -20 133 -30 52
-18 53 -18 66 1 19 26 114 67 222 95 117 30 327 34 357 7z m42 -135 c-2 -3 4
-9 13 -11 14 -4 14 -5 -3 -6 -12 0 -25 6 -28 15 -10 26 -7 35 8 22 8 -7 12
-16 10 -20z m62 -3 c1 -8 -4 -15 -12 -15 -8 0 -14 5 -14 10 0 6 5 10 11 10 5
0 7 6 3 13 -4 6 -3 8 1 4 5 -4 10 -14 11 -22z m45 -49 c36 -8 93 -25 125 -38
53 -21 61 -28 73 -64 19 -55 2 -92 -59 -121 -84 -40 -85 -40 -99 21 -28 125
-104 186 -213 172 -144 -19 -238 -114 -238 -241 l0 -38 -82 6 c-90 5 -192 38
-202 63 -3 9 -1 25 6 37 7 12 14 40 17 62 l6 39 85 29 c129 43 343 86 435 86
44 0 110 -6 146 -13z m-694 -43 c13 -52 7 -118 -12 -151 -18 -30 -91 -90 -98
-81 -2 2 -12 27 -22 54 -49 135 -148 183 -292 140 -103 -30 -156 -92 -169
-193 -6 -52 -7 -53 -33 -47 -42 10 -182 80 -230 115 -54 39 -47 45 64 55 75 7
181 31 390 90 92 26 207 41 327 44 66 1 68 0 75 -26z m483 -63 c14 -27 -23
-68 -46 -49 -14 12 -19 51 -7 62 13 14 43 6 53 -13z m-880 -29 c7 -14 5 -24
-8 -41 -20 -24 -48 -19 -57 11 -14 42 44 68 65 30z m1004 -37 c21 -20 20 -43
-1 -66 -31 -34 -73 -16 -73 32 0 47 42 66 74 34z m-866 -26 c22 -22 14 -67
-13 -80 -21 -9 -28 -8 -45 7 -22 20 -25 37 -10 66 12 21 50 25 68 7z m709 -44
c8 -21 -13 -42 -28 -27 -13 13 -5 43 11 43 6 0 13 -7 17 -16z m-854 -38 c8
-21 -22 -44 -33 -26 -10 17 -2 40 15 40 7 0 15 -6 18 -14z m968 -45 c-10 -6
-11 -13 -2 -29 6 -11 11 -31 10 -44 l-1 -23 -6 22 c-4 13 -15 32 -24 43 -25
29 -22 40 10 40 19 0 23 -3 13 -9z m49 -20 c0 -31 14 -49 25 -31 3 5 11 10 16
10 6 0 3 -7 -5 -16 -10 -10 -14 -27 -12 -48 4 -24 0 -35 -16 -45 -19 -12 -20
-11 -14 16 9 37 9 65 -1 72 -12 9 -16 71 -4 71 6 0 11 -13 11 -29z m93 -31
c-7 -28 -13 -25 -13 6 0 14 4 23 9 20 5 -3 7 -15 4 -26z m77 -14 c0 -3 -4 -8
-10 -11 -5 -3 -10 -1 -10 4 0 6 5 11 10 11 6 0 10 -2 10 -4z m-180 -35 c0 -5
-7 -14 -15 -21 -12 -10 -15 -10 -15 2 0 8 3 18 7 21 9 10 23 9 23 -2z m210
-45 c0 -11 -19 -15 -25 -6 -3 5 1 10 9 10 9 0 16 -2 16 -4z m-157 -38 c-3 -13
-9 -28 -14 -33 -10 -13 17 -49 30 -40 7 4 14 -6 17 -24 4 -19 13 -31 22 -31
13 0 12 -3 -4 -14 -16 -13 -17 -18 -7 -35 8 -12 10 -28 5 -42 -8 -20 -11 -18
-37 27 -15 27 -41 65 -56 85 l-28 36 19 39 c11 21 20 32 20 24 0 -9 6 -6 16 8
19 28 24 28 17 0z m223 -134 c-3 -29 -1 -44 6 -44 6 0 2 -10 -10 -23 -23 -24
-29 -63 -12 -69 5 -2 4 -23 -4 -53 -8 -27 -15 -40 -15 -28 -1 12 -10 27 -20
33 -16 8 -23 5 -40 -24 -12 -18 -21 -51 -22 -72 l-1 -39 -14 50 c-8 28 -21 72
-29 99 -10 36 -11 53 -4 63 6 7 15 10 20 7 13 -8 11 10 -3 25 -11 10 -6 11 25
6 24 -5 37 -4 37 4 0 6 5 11 10 11 6 0 10 -7 10 -17 0 -15 2 -15 19 1 26 23
48 103 32 119 -8 8 -11 8 -11 -1 0 -22 -18 -12 -22 13 -7 36 2 38 29 8 21 -22
24 -33 19 -69z m-2481 -54 c-3 -5 -12 -10 -18 -10 -7 0 -6 4 3 10 19 12 23 12
15 0z m2385 0 c0 -5 -4 -10 -10 -10 -5 0 -10 5 -10 10 0 6 5 10 10 10 6 0 10
-4 10 -10z m-2326 -30 c-6 -26 -4 -30 16 -30 18 0 20 -3 11 -14 -9 -11 -9 -15
0 -18 8 -3 9 -9 5 -17 -7 -11 -10 -11 -17 0 -15 24 -23 -1 -11 -33 17 -45 6
-48 -15 -4 -10 22 -26 39 -40 42 -13 4 -23 13 -23 21 0 9 -6 13 -15 9 -13 -5
-14 -2 -4 15 7 14 17 19 30 16 13 -4 25 3 35 19 22 33 35 30 28 -6z m152 17
c4 -4 15 -7 25 -7 19 0 35 -33 24 -50 -3 -5 -12 -10 -18 -10 -7 0 -6 4 3 10
13 9 12 13 -9 30 -25 22 -41 26 -41 10 0 -5 4 -10 9 -10 5 0 11 -7 14 -14 4
-11 1 -13 -10 -9 -12 5 -15 2 -10 -10 4 -11 2 -14 -9 -10 -7 3 -14 1 -14 -5 0
-6 6 -12 13 -15 6 -2 9 -8 5 -12 -9 -10 -33 16 -33 35 0 8 6 19 13 23 14 9 17
47 3 47 -5 0 -12 -6 -14 -12 -3 -8 -6 -6 -6 5 -1 13 5 17 24 14 13 -1 27 -6
31 -10z m-266 -23 c0 -8 -4 -12 -10 -9 -5 3 -10 10 -10 16 0 5 5 9 10 9 6 0
10 -7 10 -16z m484 1 c3 -8 1 -15 -4 -15 -6 0 -10 7 -10 15 0 8 2 15 4 15 2 0
6 -7 10 -15z m-14 -35 c0 -5 -4 -10 -10 -10 -5 0 -10 5 -10 10 0 6 5 10 10 10
6 0 10 -4 10 -10z m43 -14 c3 -8 1 -17 -6 -20 -9 -3 -9 -7 1 -14 11 -8 11 -10
-1 -15 -7 -3 -20 -1 -28 4 -11 7 -11 9 -1 9 7 0 10 5 7 10 -3 6 -2 10 4 10 6
0 8 7 5 15 -4 8 -2 15 4 15 5 0 12 -6 15 -14z m-299 -68 c-4 -23 -3 -29 4 -19
7 9 12 10 16 2 4 -6 0 -18 -9 -27 -13 -14 -14 -18 -2 -28 18 -14 39 -76 26
-76 -5 0 -9 -12 -9 -26 0 -14 -4 -23 -9 -20 -5 4 -12 0 -15 -6 -3 -7 -5 -1 -3
14 4 24 2 25 -19 18 -16 -7 -24 -5 -28 6 -3 8 0 14 7 14 8 0 8 3 -2 9 -10 7
-11 10 0 16 9 6 6 11 -10 17 -23 8 -27 44 -6 61 6 6 6 10 -2 14 -7 2 -13 9
-13 14 0 6 5 7 10 4 16 -10 12 2 -7 21 -17 17 -16 17 14 11 18 -3 35 -2 38 3
13 21 24 8 19 -22z m219 12 c-3 -12 -8 -19 -11 -16 -5 6 5 36 12 36 2 0 2 -9
-1 -20z m-353 1 c0 -6 -4 -13 -10 -16 -5 -3 -10 1 -10 9 0 9 5 16 10 16 6 0
10 -4 10 -9z m200 -31 c0 -5 -4 -10 -9 -10 -6 0 -13 5 -16 10 -3 6 1 10 9 10
9 0 16 -4 16 -10z m217 -5 c3 -9 -3 -37 -14 -63 -10 -26 -18 -59 -17 -74 2
-16 -2 -28 -8 -28 -7 0 -22 -10 -35 -22 -13 -12 -23 -16 -23 -10 0 6 4 13 9
16 5 3 7 14 5 24 -2 9 7 40 20 67 14 28 21 52 15 53 -5 2 -7 8 -3 13 3 5 -1 9
-8 9 -7 0 -2 7 12 14 33 19 40 19 47 1z m-221 -52 c-4 -4 -12 -1 -19 7 -9 10
-9 11 1 6 7 -4 12 -2 13 6 0 11 2 11 6 0 3 -7 2 -16 -1 -19z m2107 -13 c3 -11
1 -23 -4 -26 -5 -3 -9 6 -9 20 0 31 6 34 13 6z m-2036 -62 c-3 -8 -6 -5 -6 6
-1 11 2 17 5 13 3 -3 4 -12 1 -19z m-197 2 c0 -5 -2 -10 -4 -10 -3 0 -8 5 -11
10 -3 6 -1 10 4 10 6 0 11 -4 11 -10z m2320 -30 c0 -5 -4 -10 -10 -10 -5 0
-10 5 -10 10 0 6 5 10 10 10 6 0 10 -4 10 -10z m-2201 -80 c0 -10 -2 -11 -6
-2 -7 19 -23 4 -16 -16 6 -15 5 -15 -11 -3 -13 11 -14 16 -4 22 7 5 9 9 5 9
-4 0 -2 6 5 14 14 15 28 3 27 -24z m82 -16 c-6 -11 -11 -17 -11 -14 -1 3 -3
18 -5 34 -4 27 -3 28 12 14 12 -12 13 -20 4 -34z m159 3 c0 6 7 14 16 17 13 5
15 -3 11 -56 -3 -39 1 -78 9 -102 20 -54 18 -59 -15 -41 -20 10 -31 25 -36 47
-10 50 -35 99 -47 92 -15 -9 -29 17 -22 41 13 43 25 47 56 19 15 -15 28 -23
28 -17z m-340 13 c0 -5 -4 -10 -10 -10 -5 0 -10 5 -10 10 0 6 5 10 10 10 6 0
10 -4 10 -10z m40 -20 c0 -5 -5 -10 -11 -10 -5 0 -8 -4 -4 -10 3 -5 11 -7 18
-4 7 2 21 -2 32 -10 19 -14 19 -15 -4 -9 -16 4 -22 2 -18 -4 14 -22 -22 -21
-42 1 -24 25 -27 42 -8 49 21 9 37 7 37 -3z m252 -68 c9 -9 7 -13 -6 -18 -16
-6 -35 9 -36 28 0 10 29 3 42 -10z m-78 -10 c3 -5 -1 -9 -9 -9 -8 0 -15 4 -15
9 0 4 4 8 9 8 6 0 12 -4 15 -8z m2003 2 c-3 -3 -12 -4 -19 -1 -8 3 -5 6 6 6
11 1 17 -2 13 -5z m-1562 -88 c61 -8 218 -32 350 -55 281 -48 485 -70 755 -78
195 -6 220 -11 220 -45 0 -10 -3 -9 -10 2 -5 8 -10 12 -10 8 0 -3 -16 -2 -35
3 -43 12 -61 4 -40 -17 12 -12 13 -18 2 -27 -23 -21 -72 -44 -84 -40 -14 5
-18 -13 -4 -19 4 -1 11 -14 15 -28 l7 -25 -20 23 c-18 21 -24 22 -48 13 -27
-10 -27 -10 -3 -8 15 1 25 -3 24 -10 -4 -48 -4 -49 -14 -33 -7 11 -10 11 -10
2 0 -30 -40 -56 -102 -65 -104 -15 -177 -14 -188 3 -7 10 -10 11 -10 3 0 -7
-7 -13 -15 -13 -8 0 -24 -5 -35 -12 -15 -10 -22 -9 -38 5 -28 25 -37 21 -17
-9 16 -24 16 -26 -5 -31 -14 -4 -19 -11 -15 -24 4 -11 -3 -30 -16 -48 -23 -31
-19 -51 9 -52 12 0 11 -3 -6 -9 -12 -5 -28 -7 -36 -4 -22 8 -31 -17 -12 -32
13 -9 14 -14 5 -19 -7 -5 -19 2 -30 16 -16 21 -19 22 -19 5 0 -12 -5 -16 -16
-12 -8 3 -12 2 -9 -4 3 -6 14 -10 23 -11 14 0 14 -2 2 -6 -8 -3 -18 -11 -22
-17 -5 -7 -13 -3 -24 12 -12 17 -19 21 -27 13 -16 -16 -27 -13 -21 4 4 10 0
15 -11 15 -12 0 -15 -6 -10 -22 5 -18 4 -20 -4 -8 -8 12 -13 12 -23 2 -21 -21
-35 -14 -62 33 -29 49 -39 51 -72 17 -20 -21 -27 -22 -58 -13 -29 7 -36 7 -36
-5 0 -17 -17 -19 -23 -1 -3 6 -6 0 -6 -15 -1 -29 -7 -33 -35 -22 -20 8 -21 24
-1 24 9 0 12 6 9 15 -4 8 -15 15 -25 15 -10 0 -19 5 -19 10 0 6 -5 10 -11 10
-5 0 -7 -5 -3 -12 5 -8 2 -9 -10 -5 -10 4 -21 7 -25 7 -5 0 -8 13 -7 28 1 24
6 28 30 30 39 3 45 11 24 26 -10 7 -15 15 -12 18 2 3 -11 13 -31 22 -34 16
-50 34 -20 23 25 -10 25 7 -1 32 -16 15 -22 18 -18 7 3 -9 1 -16 -5 -16 -6 0
-11 7 -11 15 0 8 -18 22 -40 31 -22 9 -40 21 -40 26 0 6 6 8 13 5 33 -12 57
-18 57 -13 0 35 -57 88 -70 65 -5 -7 -6 -18 -3 -26 3 -7 3 -13 -1 -13 -3 0
-17 26 -32 58 -14 31 -37 79 -50 106 -13 27 -21 52 -19 57 3 4 -3 10 -14 14
-11 3 -25 13 -32 21 -12 15 -8 16 38 13 28 -2 49 -1 47 3 -2 3 5 4 16 1 14 -4
20 0 20 11 0 11 -5 14 -12 10 -7 -5 -8 -3 -4 5 5 7 0 21 -10 32 -16 18 -16 19
7 19 13 -1 74 -7 134 -14z m-290 -74 c-3 -3 -11 0 -18 7 -9 10 -8 11 6 5 10
-3 15 -9 12 -12z m1582 -138 c-3 -3 -12 -4 -19 -1 -8 3 -5 6 6 6 11 1 17 -2
13 -5z m-1282 -304 c7 -12 -2 -12 -30 0 -19 8 -19 9 2 9 12 1 25 -3 28 -9z
m-8 -86 c-3 -3 -12 -4 -19 -1 -8 3 -5 6 6 6 11 1 17 -2 13 -5z m683 -10 c0 -2
-7 -4 -15 -4 -8 0 -15 4 -15 10 0 5 7 7 15 4 8 -4 15 -8 15 -10z m-637 -15
c18 -20 18 -21 -2 -14 -12 4 -21 2 -21 -4 0 -6 -11 -11 -25 -11 -14 0 -25 5
-25 11 0 6 8 8 19 4 14 -4 21 0 26 15 8 25 7 25 28 -1z m600 -4 c4 -8 2 -17
-3 -20 -6 -4 -10 3 -10 14 0 25 6 27 13 6z m-423 1 c0 -3 -4 -8 -10 -11 -5 -3
-10 -1 -10 4 0 6 5 11 10 11 6 0 10 -2 10 -4z m-260 -16 c0 -5 -5 -10 -11 -10
-5 0 -7 5 -4 10 3 6 8 10 11 10 2 0 4 -4 4 -10z m110 -30 c0 -5 -8 -10 -17
-10 -15 0 -16 2 -3 10 19 12 20 12 20 0z m-82 -25 c-3 -3 -9 2 -12 12 -6 14
-5 15 5 6 7 -7 10 -15 7 -18z m299 -1 c-3 -3 -12 -4 -19 -1 -8 3 -5 6 6 6 11
1 17 -2 13 -5z"/>
<path d="M1450 3560 c-8 -5 -12 -12 -9 -15 4 -3 12 1 19 10 14 17 11 19 -10 5z"/>
<path d="M1400 3489 c0 -5 5 -7 10 -4 6 3 10 8 10 11 0 2 -4 4 -10 4 -5 0 -10
-5 -10 -11z"/>
<path d="M1236 3291 c-18 -34 -19 -41 -8 -41 9 0 34 61 28 68 -3 2 -12 -10
-20 -27z"/>
<path d="M1340 3249 c0 -5 5 -7 10 -4 6 3 10 8 10 11 0 2 -4 4 -10 4 -5 0 -10
-5 -10 -11z"/>
<path d="M1283 3225 c-6 -7 -9 -16 -6 -19 4 -3 -1 -6 -10 -6 -20 0 -27 -12
-38 -59 -7 -33 -7 -34 7 -16 13 17 16 18 24 5 8 -13 10 -12 10 3 0 9 6 17 14
17 10 0 14 9 12 28 -2 15 2 30 8 34 7 5 7 10 1 17 -6 6 -14 5 -22 -4z"/>
<path d="M1199 3213 c-10 -2 -19 -13 -22 -23 -4 -16 -2 -18 12 -10 21 11 47
40 35 39 -5 -1 -16 -3 -25 -6z"/>
<path d="M1220 3048 c0 -36 4 -35 14 5 4 16 2 27 -4 27 -5 0 -10 -14 -10 -32z"/>
<path d="M1275 2940 c-3 -5 -1 -10 4 -10 6 0 11 5 11 10 0 6 -2 10 -4 10 -3 0
-8 -4 -11 -10z"/>
<path d="M1187 2857 c-19 -13 -28 -62 -12 -62 6 0 10 5 10 10 0 6 3 15 6 20 8
14 19 45 16 45 -2 0 -11 -6 -20 -13z"/>
<path d="M3415 2817 c-6 -7 -15 -18 -19 -25 -7 -11 -4 -11 13 0 21 13 37 38
23 38 -4 -1 -12 -6 -17 -13z"/>
<path d="M1380 2781 c0 -5 5 -13 10 -16 6 -3 10 -2 10 4 0 5 -4 13 -10 16 -5
3 -10 2 -10 -4z"/>
<path d="M1343 2756 c0 -17 4 -23 14 -19 16 6 14 34 -3 40 -7 2 -11 -7 -11
-21z"/>
<path d="M1530 2760 c0 -5 7 -10 15 -10 8 0 15 5 15 10 0 6 -7 10 -15 10 -8 0
-15 -4 -15 -10z"/>
<path d="M1175 2705 c-9 -20 -14 -39 -11 -42 3 -3 12 12 21 32 8 21 13 40 10
43 -2 3 -12 -12 -20 -33z"/>
<path d="M1440 2732 c0 -7 4 -12 9 -12 4 0 8 -10 7 -22 -2 -31 13 -39 34 -20
18 15 16 47 -2 36 -5 -3 -18 2 -29 12 -11 10 -19 12 -19 6z"/>
<path d="M2670 2694 c-41 -24 -122 -65 -180 -91 -106 -47 -147 -71 -100 -58
83 23 370 168 370 187 0 13 -11 8 -90 -38z"/>
<path d="M1310 2722 c0 -13 15 -28 35 -36 41 -16 78 -25 69 -17 -17 16 -104
61 -104 53z"/>
<path d="M1600 2670 c0 -5 5 -10 10 -10 6 0 10 5 10 10 0 6 -4 10 -10 10 -5 0
-10 -4 -10 -10z"/>
<path d="M2817 2646 c-4 -10 -1 -13 8 -9 8 3 12 9 9 14 -7 12 -11 11 -17 -5z"/>
<path d="M1871 2631 c-9 -6 -10 -11 -2 -15 13 -8 31 1 31 15 0 11 -11 11 -29
0z"/>
<path d="M3050 2630 c0 -5 5 -10 11 -10 5 0 7 5 4 10 -3 6 -8 10 -11 10 -2 0
-4 -4 -4 -10z"/>
<path d="M1200 2585 c-10 -18 -16 -22 -22 -13 -5 9 -8 5 -8 -11 0 -17 4 -22
16 -17 9 3 19 6 22 6 4 0 7 14 8 30 1 17 0 30 -1 30 -1 0 -8 -11 -15 -25z"/>
<path d="M1790 2580 c0 -5 5 -10 10 -10 6 0 10 5 10 10 0 6 -4 10 -10 10 -5 0
-10 -4 -10 -10z"/>
<path d="M1872 2567 c-17 -39 -16 -42 15 -44 14 0 21 2 15 5 -5 4 -12 21 -14
37 l-4 30 -12 -28z"/>
<path d="M1546 2573 c5 -5 12 -12 16 -18 4 -6 8 -2 8 8 0 9 -7 17 -17 17 -9 0
-12 -3 -7 -7z"/>
<path d="M2930 2565 c0 -8 5 -15 10 -15 6 0 10 7 10 15 0 8 -4 15 -10 15 -5 0
-10 -7 -10 -15z"/>
<path d="M1821 2561 c-11 -7 -11 -10 0 -14 10 -4 10 -6 2 -6 -15 -1 -18 -21
-4 -21 10 0 26 38 19 45 -2 2 -10 0 -17 -4z"/>
<path d="M1207 2525 c-4 -8 -2 -17 2 -20 5 -2 11 4 14 15 6 23 -8 27 -16 5z"/>
<path d="M1686 2525 c4 -8 8 -15 10 -15 2 0 4 7 4 15 0 8 -4 15 -10 15 -5 0
-7 -7 -4 -15z"/>
<path d="M2877 2533 c-14 -13 -6 -33 12 -33 24 0 35 26 15 34 -19 7 -19 7 -27
-1z"/>
<path d="M2921 2470 c-6 -17 -15 -29 -21 -25 -6 4 -6 -3 1 -19 7 -14 16 -23
20 -20 13 8 11 -10 -2 -23 -9 -9 -6 -10 10 -6 25 6 38 23 19 23 -9 0 -9 3 2
10 12 8 13 12 2 19 -10 6 -8 10 9 14 13 4 25 4 28 2 2 -3 -1 -5 -7 -5 -7 0
-12 -5 -12 -12 0 -8 7 -6 18 5 15 15 15 19 2 27 -9 5 -19 5 -27 -2 -7 -6 -13
-9 -14 -7 0 2 -2 12 -4 22 -6 31 -12 30 -24 -3z"/>
<path d="M1170 2481 c0 -6 5 -13 10 -16 6 -3 10 1 10 9 0 9 -4 16 -10 16 -5 0
-10 -4 -10 -9z"/>
<path d="M3473 2466 c-17 -5 -34 -18 -37 -29 -4 -18 -4 -18 15 -1 11 10 19 12
19 6 0 -19 18 -14 30 9 14 26 12 27 -27 15z"/>
<path d="M3460 2421 c0 -5 5 -13 10 -16 6 -3 10 -2 10 4 0 5 -4 13 -10 16 -5
3 -10 2 -10 -4z"/>
<path d="M3440 2396 c0 -9 5 -16 10 -16 6 0 10 4 10 9 0 6 -4 13 -10 16 -5 3
-10 -1 -10 -9z"/>
<path d="M3250 3716 c0 -2 7 -7 16 -10 8 -3 12 -2 9 4 -6 10 -25 14 -25 6z"/>
<path d="M3465 3380 c3 -5 8 -10 11 -10 2 0 4 5 4 10 0 6 -5 10 -11 10 -5 0
-7 -4 -4 -10z"/>
<path d="M3416 3265 c4 -8 10 -12 15 -9 11 6 2 24 -11 24 -5 0 -7 -7 -4 -15z"/>
<path d="M3453 3265 c0 -8 4 -12 9 -9 5 3 6 10 3 15 -9 13 -12 11 -12 -6z"/>
<path d="M3580 2596 c0 -2 7 -6 15 -10 8 -3 15 -1 15 4 0 6 -7 10 -15 10 -8 0
-15 -2 -15 -4z"/>
<path d="M3730 2405 c-7 -9 -11 -18 -8 -20 3 -3 11 1 18 10 7 9 11 18 8 20 -3
3 -11 -1 -18 -10z"/>
<path d="M3772 2401 c7 -11 15 -18 20 -15 11 7 -3 34 -18 34 -12 0 -12 -4 -2
-19z"/>
<path d="M1990 1816 c0 -8 4 -17 8 -20 13 -8 35 11 28 23 -10 16 -36 14 -36
-3z"/>
<path d="M2015 1759 c-4 -6 -1 -15 6 -20 21 -13 31 -11 27 8 -4 20 -24 28 -33
12z"/>
<path d="M2086 1752 c-7 -12 16 -22 52 -22 16 0 22 4 17 9 -16 15 -62 24 -69
13z"/>
<path d="M2114 1691 c5 -7 -2 -11 -18 -11 -28 0 -33 -9 -14 -28 9 -9 9 -12 -2
-12 -34 0 10 -21 51 -24 49 -4 79 -14 79 -27 0 -5 -7 -9 -15 -9 -8 0 -15 -7
-15 -16 0 -10 6 -13 19 -9 23 7 68 -12 75 -32 4 -10 1 -13 -13 -8 -11 3 -22 1
-25 -4 -4 -5 3 -12 14 -16 12 -4 20 -15 20 -30 0 -25 -21 -38 -45 -29 -8 4
-15 2 -15 -4 0 -13 35 -22 59 -15 11 3 17 11 15 18 -4 9 2 13 21 10 27 -2 29
7 9 58 -3 8 2 21 11 30 8 9 11 18 6 21 -5 3 -14 -1 -21 -9 -14 -17 -34 -9 -26
10 7 19 -5 27 -20 14 -9 -7 -18 -7 -31 0 -10 6 -14 11 -9 11 5 0 3 6 -3 14 -8
10 -9 16 -1 21 17 10 11 25 -10 25 -11 0 -20 4 -20 10 0 5 -7 7 -15 4 -14 -6
-47 18 -45 33 1 4 -4 9 -11 12 -7 2 -9 -1 -5 -8z"/>
<path d="M3056 1635 c10 -8 33 -14 49 -15 22 0 26 3 15 9 -8 6 -17 8 -21 5 -4
-2 -10 0 -14 6 -3 5 -16 10 -28 10 -20 0 -20 0 -1 -15z"/>
<path d="M3145 1610 c-3 -5 1 -10 9 -10 9 0 16 5 16 10 0 6 -4 10 -9 10 -6 0
-13 -4 -16 -10z"/>
<path d="M2380 1446 c0 -8 4 -17 9 -20 5 -4 7 3 4 14 -6 23 -13 26 -13 6z"/>
<path d="M2250 1346 c0 -9 5 -16 10 -16 6 0 10 4 10 9 0 6 -4 13 -10 16 -5 3
-10 -1 -10 -9z"/>
<path d="M2390 1346 c0 -8 -11 -16 -24 -18 -23 -3 -24 -4 -10 -23 14 -19 16
-19 28 -3 7 10 15 15 18 12 3 -2 8 7 10 21 4 17 1 25 -8 25 -8 0 -14 -6 -14
-14z"/>
<path d="M2497 1305 c-4 -9 2 -19 13 -25 23 -12 25 -3 6 23 -12 15 -14 15 -19
2z"/>
</g>
</svg>
